<svg xmlns="http://www.w3.org/2000/svg" viewBox="0 0 1191.34 623.41"><defs><style>.cls-1{fill:#000619;}.cls-2{fill:#263259;}.cls-3{fill:#455ba1;}.cls-4{fill:#8293c9;}.cls-5{fill:#767676;}.cls-6{fill:#bdbdbd;}.cls-7{fill:#9e9e9e;}</style></defs><g id="Layer_2" data-name="Layer 2"><g id="Layer_1-2" data-name="Layer 1"><path class="cls-1" d="M652.39,230.28c12.11,5.25,24.37,10.2,36.31,15.82C714.06,258,738.25,272,760.58,289,777,301.51,792,315.4,802.11,333.78c11,20,9.2,41.78-5.13,59.57A104.78,104.78,0,0,1,762.83,421c-15.55,7.94-31.9,14.31-47.91,21.37-3.6.82-7.24,1.5-10.8,2.49-5.43,1.52-7.13.61-7.08-4.8.2-21.94.6-43.87.83-65.81a33.86,33.86,0,0,0-1-5.92h0l-1.14-3.36c-6.16-13.44-17.31-22.4-28.8-30.65-30.41-21.85-63.58-38.92-97.92-53.58-19.86-8.48-40.34-15.5-60.54-23.18-10-3-19.9-6.91-30.14-8.9-9.77-1.9-19.92-1.8-29.89-2.71-1.56-.14-3-1-4.57-1.51l.38-1.65c5.75,0,11.51-.23,17.24.06,8.81.44,17.82,5.27,24.45-1,2.83,2.55,4.57,5.31,6.89,5.94a49.13,49.13,0,0,0,13.84,1.51c1.73,0,4.76-2.29,4.86-3.71a67.13,67.13,0,0,0-.69-15c-1.43-9.07-4.06-18-4.8-27.11-.34-4.2-1.61-4.59-4.75-4.65-14.67-.27-29.35-.64-44-.86-5.72-.09-11.44.21-17.16.11-1.56,0-3.1-.85-4.65-1.31,1.32-.7,2.6-1.92,4-2a388.5,388.5,0,0,1,94.23,3.11,341,341,0,0,1,37,8c22.39,6.17,44.58,13.06,66.84,19.71C642.55,226.93,647.45,228.66,652.39,230.28Z"/><path class="cls-2" d="M349.33,546.65c-5.54-2.61-11-5.49-16.69-7.68-2.32-.89-5.68-1.19-7.78-.17C304.13,549,283.56,559.46,263,569.86c-4.43.1-4.4-2.89-4.39-6.09q0-28.24,0-56.48c0-3.39.13-7-4.52-7.71a1290.23,1290.23,0,0,1-145.7-75.26c0-.37,0-.74,0-1.1,3.44,1.1,5.37.61,4.7-3.74a75.68,75.68,0,0,1-1-12.2c.13-14.26.45-28.52.8-42.78.14-5.53-.19-11.23,1.07-16.52,1-4.09-.15-4.54-3.42-4.38-1.11.06-2.23,0-3.35,0,3.4-4.15,7.13-2.76,11-.8q42.22,21.18,84.47,42.27,70.21,35.19,140.47,70.27c2,1,4.89.36,7.29,0,2-.3,3.83-1.34,5.74-2.05-2.3,1.54-4.68,3-6.86,4.68-1,.81-2.37,2.13-2.38,3.23-.09,7.58.23,15.16.25,22.74q.07,25.42,0,50.85C347.05,538.88,345,543.35,349.33,546.65Z"/><path class="cls-2" d="M1034.37,207.08c-5.51-2.61-11.18-4.93-16.49-7.91-4.86-2.72-9-2.73-14.08-.11-18.45,9.58-37.14,18.73-55.73,28-6.83,1.71-7.2,1.71-7.25-5.32-.12-18.73.06-37.47.24-56.2,0-3.87-.95-6.6-5.31-6.94-30.32-14.78-60.87-29.1-90.86-44.52-18-9.27-35.21-20.25-52.77-30.47,3.19.1,5.1-.38,3.27-4.41-.95-2.08-.88-4.73-.9-7.12-.07-14-.11-28,0-42a167.18,167.18,0,0,1,.88-19.52c1-8.32,1.38-8.28-6.78-7.83,3.55-3.57,7.15-3.43,11.61-1.18,37.3,18.76,74.73,37.28,112.07,56Q968.53,85.73,1024.71,114a41.09,41.09,0,0,0,6.28,2c-.69,2.19-1.8,4.36-2,6.59-.23,3.44.35,6.93.32,10.4-.15,20.49-.17,41-.72,61.47C1028.49,200,1029.38,204.28,1034.37,207.08Z"/><path class="cls-3" d="M696.89,368.29a33.86,33.86,0,0,1,1,5.92c-.23,21.94-.63,43.87-.83,65.81,0,5.41,1.65,6.32,7.08,4.8,3.56-1,7.2-1.67,10.8-2.49-10.57,2.84-21,6.26-31.74,8.4-33.56,6.68-67.35,7.4-101.45,4.29-51.82-4.72-101.26-18.25-149.23-37.76-14.33-5.83-28.36-12.39-42.46-18.75-2.52-1.13-4.73-2.94-7.08-4.44a16.33,16.33,0,0,1,2.74.46c2.72,1,5.4,2,8.1,3.08.15-3,.43-6.07.43-9.11,0-27.73.1-55.47-.16-83.2-.08-8.66-1.5-17.31-1.58-26,0-3.58,1.86-7.18,2.87-10.77-1.49,6.29-2.51,12.77,1.3,18.43s7.67,11.87,13,15.95c14.73,11.33,29.53,22.87,45.58,32.13,20.62,11.9,42.22,22.22,63.86,32.2,31.23,14.38,63.45,26.08,97.76,30.8,20.53,2.83,40.92,3.22,60.62-4.87C688.72,388.57,697.31,382,696.89,368.29Z"/><path class="cls-2" d="M395.36,268.56c-1,3.59-2.9,7.19-2.87,10.77.08,8.66,1.5,17.31,1.58,26,.26,27.73.16,55.47.16,83.2,0,3-.28,6.07-.43,9.11-2.7-1-5.38-2.11-8.1-3.08a16.33,16.33,0,0,0-2.74-.46c-28.25-15.09-55.32-31.83-77.45-55.46-8.87-9.46-16.56-19.72-21-32.06-7.49-20.72-2.54-38.86,11.64-55,15.17-17.27,34.81-28,55.46-36.91,46.21-20,94.65-26,144.61-22.7,52.68,3.44,103,16.43,151.93,35.8a30.78,30.78,0,0,1,4.25,2.54c-4.94-1.62-9.84-3.35-14.81-4.83-22.26-6.65-44.45-13.54-66.84-19.71a341,341,0,0,0-37-8,388.5,388.5,0,0,0-94.23-3.11c-1.38.12-2.66,1.34-4,2,1.55.46,3.09,1.28,4.65,1.31,5.72.1,11.44-.2,17.16-.11,14.67.22,29.35.59,44,.86,3.14.06,4.41.45,4.75,4.65.74,9.11,3.37,18,4.8,27.11a67.13,67.13,0,0,1,.69,15c-.1,1.42-3.13,3.68-4.86,3.71a49.13,49.13,0,0,1-13.84-1.51c-2.32-.63-4.06-3.39-6.89-5.94-6.63,6.3-15.64,1.47-24.45,1-5.73-.29-11.49-.06-17.24-.06l-.38,1.65c1.52.52,3,1.37,4.57,1.51,10,.91,20.12.81,29.89,2.71,10.24,2,20.11,5.85,30.14,8.9-1.27-.26-2.55-.46-3.81-.77-23.95-6-48-11.18-72.93-7.28C417.58,251.7,403.91,255.39,395.36,268.56Z"/><path class="cls-1" d="M788.6,2.79c8.16-.45,7.83-.49,6.78,7.83a167.18,167.18,0,0,0-.88,19.52c-.12,14-.08,28,0,42,0,2.39,0,5,.9,7.12,1.83,4-.08,4.51-3.27,4.41l-6.62-3.42a24.44,24.44,0,0,0-5.32-1.82c-.53-.07-1.88,1.84-1.88,2.84,0,8.27.35,16.54.35,24.81q0,73.14-.16,146.26c0,.65-2,2-2.72,1.79-1.34-.33-2.45-1.57-3.66-2.43q-24-51.1-47.9-102.19Q703.95,106.24,683.71,63c-2.88-6.13-2.62-6.67,3.39-9.66q43.76-21.79,87.42-43.73C779.18,7.25,783.91,5.05,788.6,2.79Z"/><path class="cls-1" d="M107.07,343.56c1.12,0,2.24.1,3.35,0,3.27-.16,4.39.29,3.42,4.38-1.26,5.29-.93,11-1.07,16.52-.35,14.26-.67,28.52-.8,42.78a75.68,75.68,0,0,0,1,12.2c.67,4.35-1.26,4.84-4.7,3.74h0l-1.23-1.07c-.33,0-.67-.08-1-.13L104.94,421c-7-3.76-8.84-2.83-8.84,4.59q0,82.77,0,165.55a18.51,18.51,0,0,1-.89,4,31.09,31.09,0,0,1-3.39-1.63,22.42,22.42,0,0,1-2.57-2.12L8.43,418.75C6,413.52,3.68,408.22,1.05,403.08c-2-4-1.1-6.48,2.91-8.45C23.18,385.16,42.31,375.54,61.5,366Q84.26,354.74,107.07,343.56Z"/><path class="cls-3" d="M89.22,591.32a22.42,22.42,0,0,0,2.57,2.12,31.09,31.09,0,0,0,3.39,1.63,18.51,18.51,0,0,0,.89-4q0-82.79,0-165.55c0-7.42,1.89-8.35,8.84-4.59l1.13,1.06c.33.05.67.1,1,.13l1.23,1.07h0c0,.36,0,.73,0,1.1a46.5,46.5,0,0,0-5-2.28,37.13,37.13,0,0,0-5-1c.54,1.45.79,3.1,1.66,4.31,14.85,20.74,30.4,41,41.11,64.42,7.36,16.08,15.44,31.84,23.2,47.74,1,6.3,5.25,11.42,4.8,18.55-1,15.37-.11,30.85-.83,46.25-.25,5.22,2.37,11.35-2.81,15.82-8.74,6.87-16.95,6.75-26.9,1-14.28-8.31-29.73-14.6-44.52-22.06C92,596,90.81,593.28,89.22,591.32Z"/><path class="cls-3" d="M772.11,251.68c1.21.86,2.32,2.1,3.66,2.43.76.19,2.72-1.14,2.72-1.79q.22-73.12.16-146.26c0-8.27-.35-16.54-.35-24.81,0-1,1.35-2.91,1.88-2.84a24.44,24.44,0,0,1,5.32,1.82l-4.76,0c.3,1.16.29,2.53.93,3.45,5.05,7.16,10.45,14.08,15.32,21.36,6.84,10.22,14.11,20.27,19.77,31.13,11.38,21.81,21.8,44.13,32.61,66.24.51,2,1.45,3.92,1.45,5.88q0,30.47-.36,60.94a50.12,50.12,0,0,1-1.07,7.13l-.93.61c-8.9,5.83-17.29,7.07-27.33,1-12.73-7.66-26.63-13.36-39.92-20.12C778,256.26,775.13,253.78,772.11,251.68Z"/><path class="cls-1" d="M1034.37,207.08c-5-2.8-5.88-7.06-5.73-12.58.55-20.48.57-41,.72-61.47,0-3.47-.55-7-.32-10.4.15-2.23,1.26-4.4,2-6.59l0,0,6.74-3.52c12.4-6.39,24.75-12.9,37.29-19,1.59-.78,4.43-.09,6.25.81q30.54,15.12,60.91,30.6a15.12,15.12,0,0,1,2.79,2.44c-1,1-1.77,2.26-2.93,2.85-10.8,5.47-21.65,10.82-32.49,16.21l-3.54,2,.06,0c-5.58.44-6.81,3.91-6.79,8.89.13,25,0,50,.11,74.92,0,3.3-.17,6.09-4.45,6.07q-23.39-11.94-46.77-23.89C1043.51,212,1039,209.53,1034.37,207.08Z"/><path class="cls-1" d="M349.33,546.65c-4.3-3.3-2.28-7.77-2.26-11.91q.07-25.43,0-50.85c0-7.58-.34-15.16-.25-22.74,0-1.1,1.34-2.42,2.38-3.23,2.18-1.71,4.56-3.14,6.86-4.68,11.43-5.89,22.76-12,34.37-17.49a11.66,11.66,0,0,1,8.91-.1c19.8,9.59,39.41,19.56,59,29.52,1.66.85,2.91,2.51,4.35,3.8-1.5,1-2.94,2.07-4.52,2.9-8.26,4.32-16.55,8.57-24.83,12.84-13.94,3.3-16.48,6.49-16,20.1,0,.37,0,.75,0,1.12q0,32.62.09,65.24c0,6.86-.9,7.73-7.57,6.63q-26.4-13.41-52.8-26.84C354.48,549.62,351.93,548.09,349.33,546.65Z"/><path class="cls-4" d="M165.48,618.18c5.18-4.47,2.56-10.6,2.81-15.82.72-15.4-.13-30.88.83-46.25.45-7.13-3.78-12.25-4.8-18.55,7.16,7.71,7.11,7.6,14.48,3.92q36.78-18.35,73.65-36.49c3-1.47,3.64-2.86,1.55-5.41,4.65.72,4.51,4.32,4.52,7.71q.08,28.23,0,56.48c0,3.2,0,6.19,4.39,6.09-4.52,2.13-9.08,4.18-13.54,6.43Q209,596.66,168.64,617.1A24,24,0,0,1,165.48,618.18Z"/><path class="cls-4" d="M849.39,276.38a50.12,50.12,0,0,0,1.07-7.13q.31-30.47.36-60.94c0-2-.94-3.92-1.45-5.88,2.56-.08,5.52.66,7.63-.36,16.61-8,33-16.47,49.55-24.66,9-4.47,17.9-9.3,27.28-12.79,4.72-1.75,5-2.76,1.92-6,4.36.34,5.34,3.07,5.31,6.94-.18,18.73-.36,37.47-.24,56.2,0,7,.42,7,7.25,5.32-9.22,4.73-18.41,9.53-27.66,14.18q-24.43,12.3-48.93,24.43C864.15,269.34,856.76,272.83,849.39,276.38Z"/><path class="cls-4" d="M409.92,577.8c6.67,1.1,7.59.23,7.57-6.63q-.11-32.61-.09-65.24c0-.37,0-.75,0-1.12-.48-13.61,2.06-16.8,16-20.1l-14.55,8.91c3.8,1.68,6.64,2.81,9.37,4.17,15.5,7.75,31,15.58,46.47,23.33,10.16,5.07,20.43,10,30.54,15.15,1.79.92,3,3,4.5,4.47a40.37,40.37,0,0,1-4.43,3C480,556.49,454.63,569.1,429.41,582,421.47,586.06,416.07,580.75,409.92,577.8Z"/><path class="cls-4" d="M1094.91,238.31c4.28,0,4.46-2.77,4.45-6.07-.07-25,0-50-.11-74.92,0-5,1.21-8.45,6.79-8.89-4.4,4.42-4.27,4.16,1.19,6.84q31.62,15.51,63.09,31.34c6.17,3.09,12.23,6.38,18.27,9.72,1.17.65,2.79,2,2.74,2.94s-1.6,2.38-2.8,3c-17,8.55-34,17-51,25.47-8,4-16.34,7.46-23.91,12.17C1106.49,244.32,1100.87,241.71,1094.91,238.31Z"/><path class="cls-5" d="M1037.7,112.54l-6.74,3.52Z"/><path class="cls-6" d="M1106,148.45l3.54-2Z"/><path class="cls-7" d="M696.89,368.29l-1.14-3.36Z"/><path class="cls-5" d="M106.07,422,104.94,421Z"/><path class="cls-5" d="M108.3,423.21l-1.23-1.07Z"/><path class="cls-2" d="M506.39,192.68l10,67.82s-43-14.82-75-12.11c-22,4.29-9.73-55-9.73-55A355,355,0,0,1,506.39,192.68Z"/></g></g></svg>