<svg width="1192" height="624" viewBox="0 0 1192 624" fill="none" xmlns="http://www.w3.org/2000/svg">
<g clip-path="url(#clip0_2785_1042)">
<path d="M652.39 230.28C664.5 235.53 676.76 240.48 688.7 246.1C714.06 258 738.25 272 760.58 289C777 301.51 792 315.4 802.11 333.78C813.11 353.78 811.31 375.56 796.98 393.35C787.679 404.877 776.04 414.301 762.83 421C747.28 428.94 730.93 435.31 714.92 442.37C711.32 443.19 707.68 443.87 704.12 444.86C698.69 446.38 696.99 445.47 697.04 440.06C697.24 418.12 697.64 396.19 697.87 374.25C697.713 372.251 697.378 370.27 696.87 368.33L695.73 364.97C689.57 351.53 678.42 342.57 666.93 334.32C636.52 312.47 603.35 295.4 569.01 280.74C549.15 272.26 528.67 265.24 508.47 257.56C498.47 254.56 488.57 250.65 478.33 248.66C468.56 246.76 458.41 246.86 448.44 245.95C446.88 245.81 445.44 244.95 443.87 244.44L444.25 242.79C450 242.79 455.76 242.56 461.49 242.85C470.3 243.29 479.31 248.12 485.94 241.85C488.77 244.4 490.51 247.16 492.83 247.79C497.348 248.948 502.008 249.456 506.67 249.3C508.4 249.3 511.43 247.01 511.53 245.59C511.862 240.58 511.63 235.548 510.84 230.59C509.41 221.52 506.78 212.59 506.04 203.48C505.7 199.28 504.43 198.89 501.29 198.83C486.62 198.56 471.94 198.19 457.29 197.97C451.57 197.88 445.85 198.18 440.13 198.08C438.57 198.08 437.03 197.23 435.48 196.77C436.8 196.07 438.08 194.85 439.48 194.77C470.9 191.977 502.543 193.022 533.71 197.88C546.182 199.86 558.534 202.53 570.71 205.88C593.1 212.05 615.29 218.94 637.55 225.59C642.55 226.93 647.45 228.66 652.39 230.28Z" fill="#0F2E3D"/>
<path d="M349.33 546.65C343.79 544.04 338.33 541.16 332.64 538.97C330.32 538.08 326.96 537.78 324.86 538.8C304.13 549 283.56 559.46 263 569.86C258.57 569.96 258.6 566.97 258.61 563.77C258.61 544.943 258.61 526.117 258.61 507.29C258.61 503.9 258.74 500.29 254.09 499.58C203.977 477.608 155.312 452.471 108.39 424.32C108.39 423.95 108.39 423.58 108.39 423.22C111.83 424.32 113.76 423.83 113.09 419.48C112.428 415.447 112.093 411.367 112.09 407.28C112.22 393.02 112.54 378.76 112.89 364.5C113.03 358.97 112.7 353.27 113.96 347.98C114.96 343.89 113.81 343.44 110.54 343.6C109.43 343.66 108.31 343.6 107.19 343.6C110.59 339.45 114.32 340.84 118.19 342.8C146.337 356.92 174.493 371.01 202.66 385.07C249.467 408.53 296.29 431.953 343.13 455.34C345.13 456.34 348.02 455.7 350.42 455.34C352.42 455.04 354.25 454 356.16 453.29C353.86 454.83 351.48 456.29 349.3 457.97C348.3 458.78 346.93 460.1 346.92 461.2C346.83 468.78 347.15 476.36 347.17 483.94C347.217 500.887 347.217 517.837 347.17 534.79C347.05 538.88 345 543.35 349.33 546.65Z" fill="#264859"/>
<path d="M1034.37 207.08C1028.86 204.47 1023.19 202.15 1017.88 199.17C1013.02 196.45 1008.88 196.44 1003.8 199.06C985.35 208.64 966.66 217.79 948.07 227.06C941.24 228.77 940.87 228.77 940.82 221.74C940.7 203.01 940.88 184.27 941.06 165.54C941.06 161.67 940.11 158.94 935.75 158.6C905.43 143.82 874.88 129.5 844.89 114.08C826.89 104.81 809.68 93.83 792.12 83.61C795.31 83.71 797.22 83.23 795.39 79.2C794.44 77.12 794.51 74.47 794.49 72.08C794.42 58.08 794.38 44.08 794.49 30.08C794.402 23.5618 794.696 17.044 795.37 10.56C796.37 2.24001 796.75 2.28001 788.59 2.73001C792.14 -0.83999 795.74 -0.699991 800.2 1.55001C837.5 20.31 874.93 38.83 912.27 57.55C949.777 76.3367 987.256 95.1533 1024.71 114C1026.75 114.834 1028.85 115.503 1030.99 116C1030.3 118.19 1029.19 120.36 1028.99 122.59C1028.76 126.03 1029.34 129.52 1029.31 132.99C1029.16 153.48 1029.14 173.99 1028.59 194.46C1028.49 200 1029.38 204.28 1034.37 207.08Z" fill="#264859"/>
<path d="M696.89 368.29C697.398 370.23 697.733 372.211 697.89 374.21C697.66 396.15 697.26 418.08 697.06 440.02C697.06 445.43 698.71 446.34 704.14 444.82C707.7 443.82 711.34 443.15 714.94 442.33C704.37 445.17 693.94 448.59 683.2 450.73C649.64 457.41 615.85 458.13 581.75 455.02C529.93 450.3 480.49 436.77 432.52 417.26C418.19 411.43 404.16 404.87 390.06 398.51C387.54 397.38 385.33 395.57 382.98 394.07C383.905 394.145 384.821 394.299 385.72 394.53C388.44 395.53 391.12 396.53 393.82 397.61C393.97 394.61 394.25 391.54 394.25 388.5C394.25 360.77 394.35 333.03 394.09 305.3C394.01 296.64 392.59 287.99 392.51 279.3C392.51 275.72 394.37 272.12 395.38 268.53C393.89 274.82 392.87 281.3 396.68 286.96C400.49 292.62 404.35 298.83 409.68 302.91C424.41 314.24 439.21 325.78 455.26 335.04C475.88 346.94 497.48 357.26 519.12 367.24C550.35 381.62 582.57 393.32 616.88 398.04C637.41 400.87 657.8 401.26 677.5 393.17C688.72 388.57 697.31 382 696.89 368.29Z" fill="#4582A1"/>
<path d="M395.36 268.56C394.36 272.15 392.46 275.75 392.49 279.33C392.57 287.99 393.99 296.64 394.07 305.33C394.33 333.06 394.23 360.8 394.23 388.53C394.23 391.53 393.95 394.6 393.8 397.64C391.1 396.64 388.42 395.53 385.7 394.56C384.801 394.329 383.885 394.175 382.96 394.1C354.71 379.01 327.64 362.27 305.51 338.64C296.64 329.18 288.95 318.92 284.51 306.58C277.02 285.86 281.97 267.72 296.15 251.58C311.32 234.31 330.96 223.58 351.61 214.67C397.82 194.67 446.26 188.67 496.22 191.97C548.9 195.41 599.22 208.4 648.15 227.77C649.633 228.501 651.054 229.351 652.4 230.31C647.46 228.69 642.56 226.96 637.59 225.48C615.33 218.83 593.14 211.94 570.75 205.77C558.574 202.42 546.222 199.75 533.75 197.77C502.583 192.912 470.94 191.867 439.52 194.66C438.14 194.78 436.86 196 435.52 196.66C437.07 197.12 438.61 197.94 440.17 197.97C445.89 198.07 451.61 197.77 457.33 197.86C472 198.08 486.68 198.45 501.33 198.72C504.47 198.78 505.74 199.17 506.08 203.37C506.82 212.48 509.45 221.37 510.88 230.48C511.67 235.439 511.902 240.47 511.57 245.48C511.47 246.9 508.44 249.16 506.71 249.19C502.048 249.346 497.388 248.838 492.87 247.68C490.55 247.05 488.81 244.29 485.98 241.74C479.35 248.04 470.34 243.21 461.53 242.74C455.8 242.45 450.04 242.68 444.29 242.68L443.91 244.33C445.43 244.85 446.91 245.7 448.48 245.84C458.48 246.75 468.6 246.65 478.37 248.55C488.61 250.55 498.48 254.4 508.51 257.45C507.24 257.19 505.96 256.99 504.7 256.68C480.75 250.68 456.7 245.5 431.77 249.4C417.58 251.7 403.91 255.39 395.36 268.56Z" fill="#264859"/>
<path d="M788.6 2.79003C796.76 2.34003 796.43 2.30003 795.38 10.62C794.706 17.104 794.412 23.6218 794.5 30.14C794.38 44.14 794.42 58.14 794.5 72.14C794.5 74.53 794.5 77.14 795.4 79.26C797.23 83.26 795.32 83.77 792.13 83.67L785.51 80.25C783.813 79.4407 782.027 78.83 780.19 78.43C779.66 78.36 778.31 80.27 778.31 81.27C778.31 89.54 778.66 97.81 778.66 106.08C778.66 154.84 778.607 203.593 778.5 252.34C778.5 252.99 776.5 254.34 775.78 254.13C774.44 253.8 773.33 252.56 772.12 251.7C756.12 217.633 740.153 183.57 724.22 149.51C710.707 120.663 697.203 91.8267 683.71 63C680.83 56.87 681.09 56.33 687.1 53.34C716.273 38.8134 745.413 24.2367 774.52 9.61003C779.18 7.25003 783.91 5.05003 788.6 2.79003Z" fill="#0F2E3D"/>
<path d="M107.07 343.56C108.19 343.56 109.31 343.66 110.42 343.56C113.69 343.4 114.81 343.85 113.84 347.94C112.58 353.23 112.91 358.94 112.77 364.46C112.42 378.72 112.1 392.98 111.97 407.24C111.973 411.327 112.308 415.407 112.97 419.44C113.64 423.79 111.71 424.28 108.27 423.18L107.04 422.11C106.71 422.11 106.37 422.03 106.04 421.98L104.94 421C97.94 417.24 96.1 418.17 96.1 425.59C96.1 480.77 96.1 535.953 96.1 591.14C95.9522 592.502 95.6537 593.844 95.21 595.14C94.0481 594.666 92.916 594.121 91.82 593.51C90.9119 592.868 90.0529 592.159 89.25 591.39L8.42996 418.75C5.99996 413.52 3.67996 408.22 1.04996 403.08C-0.950045 399.08 -0.0500448 396.6 3.95996 394.63C23.18 385.16 42.31 375.54 61.5 366C76.6733 358.493 91.8633 351.013 107.07 343.56Z" fill="#0F2E3D"/>
<path d="M89.2197 591.32C90.0226 592.089 90.8817 592.798 91.7897 593.44C92.8858 594.051 94.0179 594.596 95.1797 595.07C95.6235 593.774 95.922 592.432 96.0697 591.07C96.0697 535.877 96.0697 480.693 96.0697 425.52C96.0697 418.1 97.9597 417.17 104.91 420.93L106.04 421.99C106.37 422.04 106.71 422.09 107.04 422.12L108.27 423.19C108.27 423.55 108.27 423.92 108.27 424.29C106.649 423.432 104.98 422.671 103.27 422.01C101.628 421.562 99.9573 421.228 98.2697 421.01C98.8097 422.46 99.0597 424.11 99.9297 425.32C114.78 446.06 130.33 466.32 141.04 489.74C148.4 505.82 156.48 521.58 164.24 537.48C165.24 543.78 169.49 548.9 169.04 556.03C168.04 571.4 168.93 586.88 168.21 602.28C167.96 607.5 170.58 613.63 165.4 618.1C156.66 624.97 148.45 624.85 138.5 619.1C124.22 610.79 108.77 604.5 93.9797 597.04C91.9997 596 90.8097 593.28 89.2197 591.32Z" fill="#4582A1"/>
<path d="M772.11 251.68C773.32 252.54 774.43 253.78 775.77 254.11C776.53 254.3 778.49 252.97 778.49 252.32C778.637 203.573 778.69 154.82 778.65 106.06C778.65 97.7901 778.3 89.5201 778.3 81.2501C778.3 80.2501 779.65 78.3401 780.18 78.4101C782.018 78.8101 783.803 79.4208 785.5 80.2301H780.74C781.04 81.3901 781.03 82.7601 781.67 83.6801C786.72 90.8401 792.12 97.7601 796.99 105.04C803.83 115.26 811.1 125.31 816.76 136.17C828.14 157.98 838.56 180.3 849.37 202.41C849.88 204.41 850.82 206.33 850.82 208.29C850.82 228.603 850.7 248.917 850.46 269.23C850.275 271.629 849.918 274.012 849.39 276.36L848.46 276.97C839.56 282.8 831.17 284.04 821.13 277.97C808.4 270.31 794.5 264.61 781.21 257.85C778 256.26 775.13 253.78 772.11 251.68Z" fill="#4582A1"/>
<path d="M1034.37 207.08C1029.37 204.28 1028.49 200.02 1028.64 194.5C1029.19 174.02 1029.21 153.5 1029.36 133.03C1029.36 129.56 1028.81 126.03 1029.04 122.63C1029.19 120.4 1030.3 118.23 1031.04 116.04L1037.78 112.52C1050.18 106.13 1062.53 99.62 1075.07 93.52C1076.66 92.74 1079.5 93.43 1081.32 94.33C1101.68 104.41 1121.98 114.61 1142.23 124.93C1143.26 125.626 1144.19 126.445 1145.02 127.37C1144.02 128.37 1143.25 129.63 1142.09 130.22C1131.29 135.69 1120.44 141.04 1109.6 146.43L1106.06 148.43H1106.12C1100.54 148.87 1099.31 152.34 1099.33 157.32C1099.46 182.32 1099.33 207.32 1099.44 232.24C1099.44 235.54 1099.27 238.33 1094.99 238.31C1079.4 230.35 1063.81 222.387 1048.22 214.42C1043.51 212 1039 209.53 1034.37 207.08Z" fill="#0F2E3D"/>
<path d="M349.33 546.65C345.03 543.35 347.05 538.88 347.07 534.74C347.117 517.787 347.117 500.837 347.07 483.89C347.07 476.31 346.73 468.73 346.82 461.15C346.82 460.05 348.16 458.73 349.2 457.92C351.38 456.21 353.76 454.78 356.06 453.24C367.49 447.35 378.82 441.24 390.43 435.75C393.27 434.538 396.474 434.502 399.34 435.65C419.14 445.24 438.75 455.21 458.34 465.17C460 466.02 461.25 467.68 462.69 468.97C461.19 469.97 459.75 471.04 458.17 471.87C449.91 476.19 441.62 480.44 433.34 484.71C419.4 488.01 416.86 491.2 417.34 504.81C417.34 505.18 417.34 505.56 417.34 505.93C417.34 527.677 417.37 549.423 417.43 571.17C417.43 578.03 416.53 578.9 409.86 577.8C392.26 568.86 374.66 559.913 357.06 550.96C354.48 549.62 351.93 548.09 349.33 546.65Z" fill="#0F2E3D"/>
<path d="M165.48 618.18C170.66 613.71 168.04 607.58 168.29 602.36C169.01 586.96 168.16 571.48 169.12 556.11C169.57 548.98 165.34 543.86 164.32 537.56C171.48 545.27 171.43 545.16 178.8 541.48C203.32 529.247 227.87 517.083 252.45 504.99C255.45 503.52 256.09 502.13 254 499.58C258.65 500.3 258.51 503.9 258.52 507.29C258.573 526.11 258.573 544.937 258.52 563.77C258.52 566.97 258.52 569.96 262.91 569.86C258.39 571.99 253.83 574.04 249.37 576.29C222.456 589.87 195.546 603.473 168.64 617.1C167.613 617.533 166.557 617.894 165.48 618.18Z" fill="#82B2C9"/>
<path d="M849.39 276.38C849.918 274.032 850.275 271.649 850.46 269.25C850.667 248.937 850.787 228.623 850.82 208.31C850.82 206.31 849.88 204.39 849.37 202.43C851.93 202.35 854.89 203.09 857 202.07C873.61 194.07 890 185.6 906.55 177.41C915.55 172.94 924.45 168.11 933.83 164.62C938.55 162.87 938.83 161.86 935.75 158.62C940.11 158.96 941.09 161.69 941.06 165.56C940.88 184.29 940.7 203.03 940.82 221.76C940.82 228.76 941.24 228.76 948.07 227.08C938.85 231.81 929.66 236.61 920.41 241.26C904.123 249.46 887.813 257.603 871.48 265.69C864.15 269.34 856.76 272.83 849.39 276.38Z" fill="#82B2C9"/>
<path d="M409.92 577.8C416.59 578.9 417.51 578.03 417.49 571.17C417.417 549.43 417.387 527.683 417.4 505.93C417.4 505.56 417.4 505.18 417.4 504.81C416.92 491.2 419.46 488.01 433.4 484.71L418.85 493.62C422.65 495.3 425.49 496.43 428.22 497.79C443.72 505.54 459.22 513.37 474.69 521.12C484.85 526.19 495.12 531.12 505.23 536.27C507.02 537.19 508.23 539.27 509.73 540.74C508.321 541.837 506.841 542.839 505.3 543.74C480 556.49 454.63 569.1 429.41 582C421.47 586.06 416.07 580.75 409.92 577.8Z" fill="#82B2C9"/>
<path d="M1094.91 238.31C1099.19 238.31 1099.37 235.54 1099.36 232.24C1099.29 207.24 1099.36 182.24 1099.25 157.32C1099.25 152.32 1100.46 148.87 1106.04 148.43C1101.64 152.85 1101.77 152.59 1107.23 155.27C1128.31 165.61 1149.34 176.057 1170.32 186.61C1176.49 189.7 1182.55 192.99 1188.59 196.33C1189.76 196.98 1191.38 198.33 1191.33 199.27C1191.28 200.21 1189.73 201.65 1188.53 202.27C1171.53 210.82 1154.53 219.27 1137.53 227.74C1129.53 231.74 1121.19 235.2 1113.62 239.91C1106.49 244.32 1100.87 241.71 1094.91 238.31Z" fill="#82B2C9"/>
<path d="M506.39 192.68L516.39 260.5C516.39 260.5 473.39 245.68 441.39 248.39C419.39 252.68 431.66 193.39 431.66 193.39C456.476 190.525 481.524 190.287 506.39 192.68Z" fill="#264859"/>
</g>
<defs>
<clipPath id="clip0_2785_1042">
<rect width="1191.34" height="623.41" fill="white"/>
</clipPath>
</defs>
</svg>
