<svg width="90" height="90" viewBox="0 0 90 90" fill="none" xmlns="http://www.w3.org/2000/svg">
<path fill-rule="evenodd" clip-rule="evenodd" d="M16.3636 0C12.0237 0 7.86158 1.72402 4.7928 4.7928C1.72402 7.86158 0 12.0237 0 16.3636V73.6364C0 77.9763 1.72402 82.1384 4.7928 85.2072C7.86158 88.276 12.0237 90 16.3636 90H73.6364C77.9763 90 82.1384 88.276 85.2072 85.2072C88.276 82.1384 90 77.9763 90 73.6364V16.3636C90 12.0237 88.276 7.86158 85.2072 4.7928C82.1384 1.72402 77.9763 0 73.6364 0H16.3636ZM12.2727 58.0173V32.7273H16.7318V35.5623C18.7036 34.0691 21.4036 32.7273 24.9218 32.7273C26.5459 32.7273 28.4523 33.1977 30.0191 34.1877C30.5918 34.5477 31.1482 35.0059 31.6309 35.55C33.9538 33.713 36.8308 32.718 39.7923 32.7273C41.4164 32.7273 43.3268 33.1977 44.8936 34.1877C46.4891 35.1982 47.9741 36.9327 47.9741 39.4241V58.0173H43.515V39.42C43.515 38.9332 43.2655 38.4382 42.5086 37.9595C41.689 37.4631 40.7505 37.1974 39.7923 37.1905C36.7405 37.1905 34.6541 38.6509 33.0995 40.1809V58.0173H28.6364V39.42C28.6364 38.9332 28.3909 38.4382 27.6341 37.9595C26.8145 37.4631 25.8759 37.1974 24.9177 37.1905C20.9086 37.1905 18.7241 39.6041 17.0223 41.4818L16.7359 41.7968V58.0173H12.2727ZM57.2073 47.6018H77.7273V45.3723C77.7264 42.3844 76.6671 39.4934 74.7375 37.2122C72.8078 34.931 70.1325 33.4071 67.1861 32.9108C64.2398 32.4145 61.2128 32.9779 58.6424 34.501C56.0719 36.0242 54.124 38.4086 53.1443 41.2313C52.1646 44.054 52.2164 47.1324 53.2906 49.9206C54.3647 52.7087 56.3918 55.0262 59.0121 56.4619C61.6324 57.8977 64.6766 58.3589 67.6045 57.7636C70.5325 57.1684 73.155 55.5553 75.0068 53.2105L71.505 50.4409C70.5711 51.6253 69.328 52.5285 67.9129 53.0507C66.4979 53.5729 64.9661 53.6938 63.4867 53.4001C62.0072 53.1063 60.6378 52.4093 59.5297 51.3861C58.4215 50.3628 57.6178 49.0532 57.2073 47.6018ZM65.0823 37.1905C63.3006 37.1898 61.5674 37.7708 60.146 38.8452C58.7246 39.9195 57.6928 41.4284 57.2073 43.1427H72.9573C72.4718 41.4284 71.4399 39.9195 70.0186 38.8452C68.5972 37.7708 66.864 37.1898 65.0823 37.1905Z" fill="white" fill-opacity="0.5"/>
<path d="M16.3633 1H73.6367C77.7113 1.00009 81.6188 2.61884 84.5 5.5C87.3812 8.38116 88.9999 12.2887 89 16.3633V73.6367C88.9999 77.7113 87.3812 81.6188 84.5 84.5C81.6188 87.3812 77.7113 88.9999 73.6367 89H16.3633C12.2887 88.9999 8.38116 87.3812 5.5 84.5C2.61884 81.6188 1.00009 77.7113 1 73.6367V16.3633C1.00009 12.2887 2.61884 8.38116 5.5 5.5C8.38116 2.61884 12.2887 1.00009 16.3633 1ZM11.2725 59.0176H17.7363V42.1826L17.7627 42.1543L17.7637 42.1533C19.4721 40.2683 21.3881 38.1926 24.9121 38.1904C25.6843 38.1963 26.4407 38.4091 27.1025 38.8066C27.3921 38.9902 27.5202 39.1369 27.5762 39.2246C27.6247 39.3007 27.6367 39.3579 27.6367 39.4199V59.0176H34.0996V40.6074C35.5097 39.2949 37.285 38.1919 39.7871 38.1904C40.5609 38.1964 41.3187 38.4104 41.9814 38.8096C42.2688 38.9924 42.3973 39.1391 42.4541 39.2275C42.5035 39.3046 42.5146 39.361 42.5146 39.4199V59.0176H48.9736V39.4238C48.9735 36.4814 47.2082 34.4698 45.4287 33.3428H45.4277C43.687 32.2429 41.589 31.728 39.7949 31.7275H39.792C36.9051 31.7192 34.0943 32.5993 31.7324 34.2344C31.3559 33.8945 30.9564 33.5958 30.5508 33.3408C28.81 32.2417 26.7161 31.7275 24.9219 31.7275C22.0163 31.7275 19.6308 32.5801 17.7314 33.6924V31.7275H11.2725V59.0176ZM67.3525 31.9248C64.1732 31.3892 60.9066 31.9971 58.1328 33.6406C55.359 35.2843 53.2564 37.8573 52.1992 40.9033C51.142 43.9493 51.1983 47.2716 52.3574 50.2803C53.5165 53.2888 55.7038 55.7896 58.5312 57.3389C61.3588 58.8882 64.6441 59.3855 67.8037 58.7432C70.9633 58.1009 73.7937 56.3604 75.792 53.8301L76.4111 53.0459L75.627 52.4258L72.125 49.6562L71.3398 49.0352L70.7197 49.8213C69.9 50.8609 68.8085 51.6539 67.5664 52.1123C66.3244 52.5706 64.9801 52.6768 63.6816 52.4189C62.383 52.1611 61.1807 51.5495 60.208 50.6514C59.5719 50.064 59.0518 49.3684 58.666 48.6016H78.7275V45.3721L78.7139 44.7686C78.5798 41.7602 77.4531 38.8741 75.501 36.5664C73.4187 34.1048 70.5319 32.4604 67.3525 31.9248ZM65.082 38.1904H65.083C66.6468 38.19 68.1685 38.6996 69.416 39.6426C70.2974 40.3088 71.0065 41.1665 71.498 42.1426H58.666C59.1576 41.1664 59.8675 40.3089 60.749 39.6426C61.9966 38.6997 63.5182 38.1899 65.082 38.1904Z" stroke="url(#paint0_linear_2368_831)" stroke-opacity="0.36" stroke-width="2"/>
<defs>
<linearGradient id="paint0_linear_2368_831" x1="45" y1="0" x2="45" y2="90" gradientUnits="userSpaceOnUse">
<stop offset="0.245192" stop-color="white" stop-opacity="0"/>
<stop offset="1" stop-color="white"/>
</linearGradient>
</defs>
</svg>
