<svg width="164" height="944" viewBox="0 0 164 944" fill="none" xmlns="http://www.w3.org/2000/svg">
<path d="M116.48 860.758L116.48 894.423L1.57103 856.494L1.57103 813.852L116.48 775.923V809.587L33.2159 834.724V835.622L116.48 860.758ZM71.1449 867.042L71.1449 803.752H94.4858V867.042H71.1449Z" fill="#000619" fill-opacity="0.05"/>
<path d="M116.48 764.855H1.57103L1.57103 715.031C1.57103 706.279 2.7493 698.929 5.10583 692.981C7.46236 686.996 10.7914 682.489 15.093 679.459C19.3947 676.392 24.4631 674.858 30.2983 674.858C34.5251 674.858 38.3778 675.793 41.8565 677.664C45.3352 679.496 48.2528 682.077 50.6094 685.406C52.9285 688.736 54.5369 692.626 55.4347 697.077H56.5568C56.7438 692.139 57.9969 687.651 60.3161 683.611C62.5978 679.571 65.7585 676.354 69.7983 673.961C73.8007 671.567 78.5137 670.37 83.9375 670.37C90.2216 670.37 95.8137 672.015 100.714 675.307C105.614 678.561 109.467 683.2 112.272 689.222C115.077 695.244 116.48 702.426 116.48 710.767V764.855ZM91.5682 733.659V719.071C91.5682 713.835 90.5957 709.907 88.6506 707.289C86.6681 704.67 83.7505 703.361 79.8977 703.361C77.2046 703.361 74.9228 703.978 73.0526 705.213C71.1823 706.447 69.7609 708.205 68.7884 710.487C67.8158 712.731 67.3296 715.443 67.3296 718.622V733.659H91.5682ZM48.0284 733.659V720.867C48.0284 718.136 47.5983 715.724 46.7379 713.629C45.8776 711.534 44.6432 709.907 43.0348 708.747C41.389 707.55 39.3878 706.952 37.0313 706.952C33.4777 706.952 30.7659 708.224 28.8956 710.767C26.9879 713.311 26.0341 716.528 26.0341 720.418V733.659H48.0284Z" fill="#000619" fill-opacity="0.05"/>
<path d="M59.0256 547.998C71.8182 547.998 82.6096 550.486 91.3999 555.46C100.153 560.435 106.792 567.15 111.318 575.603C115.807 584.057 118.051 593.483 118.051 603.882C118.051 614.355 115.788 623.819 111.262 632.272C106.699 640.688 100.04 647.384 91.2876 652.359C82.4974 657.296 71.7434 659.765 59.0256 659.765C46.233 659.765 35.4602 657.296 26.7074 652.359C17.9171 647.384 11.2777 640.688 6.78906 632.272C2.26302 623.819 4.57811e-07 614.355 0 603.882C-4.5454e-07 593.483 2.26302 584.057 6.78906 575.603C11.2777 567.15 17.9171 560.435 26.7074 555.46C35.4602 550.486 46.233 547.998 59.0256 547.998ZM59.0256 580.092C52.143 580.092 46.3452 581.008 41.6321 582.841C36.8816 584.637 33.2907 587.311 30.8594 590.865C28.3906 594.381 27.1562 598.72 27.1562 603.882C27.1563 609.044 28.3906 613.401 30.8594 616.955C33.2907 620.471 36.8816 623.145 41.6321 624.978C46.3452 626.774 52.143 627.671 59.0256 627.671C65.9081 627.671 71.7247 626.774 76.4751 624.978C81.1882 623.145 84.7791 620.471 87.2479 616.955C89.6792 613.401 90.8949 609.044 90.8949 603.882C90.8949 598.72 89.6792 594.381 87.2479 590.865C84.7791 587.311 81.1882 584.637 76.4751 582.841C71.7247 581.008 65.9081 580.092 59.0256 580.092Z" fill="#000619" fill-opacity="0.05"/>
<path d="M1.57102 465.562L1.57102 434.366H75.1847C83.9375 434.366 91.5121 436.46 97.9084 440.65C104.267 444.802 109.186 450.599 112.665 458.043C116.106 465.487 117.827 474.127 117.827 483.965C117.827 493.877 116.106 502.555 112.665 509.999C109.186 517.443 104.267 523.24 97.9084 527.392C91.5121 531.507 83.9375 533.564 75.1847 533.564H1.57102L1.57102 502.368H72.4915C76.045 502.368 79.2244 501.583 82.0298 500.012C84.7978 498.441 86.9673 496.271 88.5384 493.503C90.1094 490.698 90.8949 487.518 90.8949 483.965C90.8949 480.374 90.1094 477.195 88.5384 474.427C86.9673 471.659 84.7978 469.489 82.0298 467.918C79.2244 466.347 76.045 465.562 72.4915 465.562H1.57102Z" fill="#000619" fill-opacity="0.05"/>
<path d="M26.7074 422.681H1.57102L1.57101 322.809H26.7074L26.7074 357.371H116.48V388.119H26.7074L26.7074 422.681Z" fill="#000619" fill-opacity="0.05"/>
<path d="M1.57101 279.592L1.57101 240.765L66.6562 214.058V212.711L1.57101 186.004L1.571 147.177L116.48 147.177L116.48 177.7H50.0483V178.597L115.582 204.183V222.586L49.5994 248.171V249.069H116.48V279.592H1.57101Z" fill="#000619" fill-opacity="0.05"/>
<path d="M116.48 132.392L1.571 132.392L1.571 49.5771L26.7074 49.5771L26.7074 101.196H46.4574V53.8414L71.5937 53.8413L71.5937 101.196L91.3437 101.196L91.3437 49.8016L116.48 49.8016V132.392Z" fill="#000619" fill-opacity="0.05"/>
</svg>
