<svg width="38" height="38" viewBox="0 0 38 38" fill="none" xmlns="http://www.w3.org/2000/svg">
<rect x="1" y="1.00001" width="36" height="36" rx="18" stroke="#263259" stroke-width="2"/>
<path d="M10.7929 18.2929C10.4024 18.6834 10.4024 19.3166 10.7929 19.7071L17.1569 26.0711C17.5474 26.4616 18.1805 26.4616 18.5711 26.0711C18.9616 25.6806 18.9616 25.0474 18.5711 24.6569L12.9142 19L18.5711 13.3432C18.9616 12.9526 18.9616 12.3195 18.5711 11.9289C18.1805 11.5384 17.5474 11.5384 17.1569 11.9289L10.7929 18.2929ZM26.5 19L26.5 18L11.5 18L11.5 19L11.5 20L26.5 20L26.5 19Z" fill="#263259"/>
</svg>
