<svg width="120" height="65" viewBox="0 0 120 65" fill="none" xmlns="http://www.w3.org/2000/svg">
<path d="M110 0H45C39.5 0 35 4.5 35 10V55C35 57.6522 36.0536 60.1957 37.9289 62.0711C39.8043 63.9464 42.3478 65 45 65H110C115.55 65 120 60.55 120 55V10C120 7.34784 118.946 4.8043 117.071 2.92893C115.196 1.05357 112.652 0 110 0ZM110 18.35L77.5 35L45 18.35V10L77.5 26.55L110 10V18.35ZM25 55C25 55.85 25.15 56.65 25.25 57.5H5C2.24 57.5 0 55.25 0 52.5C0 49.75 2.24 47.5 5 47.5H25V55ZM15 7.5H25.25C25.15 8.35 25 9.15 25 10V17.5H15C12.25 17.5 10 15.25 10 12.5C10 9.75 12.25 7.5 15 7.5ZM5 32.5C5 29.75 7.25 27.5 10 27.5H25V37.5H10C7.25 37.5 5 35.25 5 32.5Z" fill="white" fill-opacity="0.5"/>
<path d="M45 1H110C112.387 1 114.676 1.94791 116.364 3.63574C118.052 5.32357 119 7.61305 119 10V55C119 59.9977 114.998 64 110 64H45C42.6131 64 40.3236 63.0521 38.6357 61.3643C36.9479 59.6764 36 57.3869 36 55V10C36 5.05228 40.0523 1 45 1ZM5 48.5H24V55C24 55.5095 24.051 56.0184 24.1113 56.5H5C2.79359 56.5 1 54.699 1 52.5C1 50.301 2.79359 48.5 5 48.5ZM10 28.5H24V36.5H10C7.80228 36.5 6 34.6977 6 32.5C6 30.3023 7.80228 28.5 10 28.5ZM109.546 9.10938L77.5 25.4277L45.4541 9.10938L44 8.36816V18.9609L44.5439 19.2402L77.0439 35.8896L77.5 36.124L77.9561 35.8896L110.456 19.2402L111 18.9609V8.36816L109.546 9.10938ZM15 8.5H24.1113C24.051 8.98164 24 9.49046 24 10V16.5H15C12.8023 16.5 11 14.6977 11 12.5C11 10.3023 12.8023 8.5 15 8.5Z" stroke="url(#paint0_linear_2368_828)" stroke-opacity="0.36" stroke-width="2"/>
<defs>
<linearGradient id="paint0_linear_2368_828" x1="60" y1="0" x2="60" y2="65" gradientUnits="userSpaceOnUse">
<stop offset="0.245192" stop-color="white" stop-opacity="0"/>
<stop offset="1" stop-color="white"/>
</linearGradient>
</defs>
</svg>
