<svg width="164" height="944" viewBox="0 0 164 944" fill="none" xmlns="http://www.w3.org/2000/svg">
<path d="M44.662 761.419V793.064C42.0436 793.288 39.6683 793.887 37.5362 794.859C35.4041 795.794 33.5713 797.104 32.0377 798.787C30.4666 800.433 29.2697 802.434 28.4468 804.79C27.5864 807.147 27.1563 809.821 27.1563 812.814C27.1563 818.051 28.4281 822.483 30.9716 826.111C33.5152 829.702 37.1622 832.433 41.9127 834.303C46.6631 836.136 52.3675 837.052 59.0256 837.052C66.0578 837.052 71.9491 836.117 76.6996 834.247C81.4127 832.339 84.9662 829.59 87.3601 825.999C89.7166 822.408 90.8949 818.088 90.8949 813.038C90.8949 810.158 90.5396 807.577 89.8289 805.295C89.0808 803.014 88.0147 801.031 86.6307 799.348C85.2467 797.665 83.5822 796.299 81.6371 795.252C79.6546 794.167 77.429 793.438 74.9603 793.064L75.1847 761.419C80.0474 761.793 85.0036 763.158 90.0533 765.515C95.0656 767.871 99.7039 771.219 103.968 775.558C108.195 779.86 111.599 785.19 114.18 791.549C116.761 797.908 118.051 805.295 118.051 813.712C118.051 824.26 115.788 833.723 111.262 842.102C106.736 850.444 100.078 857.046 91.2877 861.908C82.4974 866.734 71.7434 869.146 59.0256 869.146C46.233 869.146 35.4603 866.677 26.7074 861.74C17.9172 856.802 11.2777 850.144 6.78909 841.766C2.26305 833.387 2.56151e-05 824.035 2.51638e-05 813.712C2.48466e-05 806.455 0.991264 799.778 2.97374 793.681C4.95623 787.584 7.85514 782.235 11.6705 777.634C15.4484 773.033 20.1054 769.33 25.6414 766.525C31.1773 763.719 37.5175 762.017 44.662 761.419Z" fill="#000619" fill-opacity="0.05"/>
<path d="M59.0256 635.948C71.8182 635.948 82.6096 638.435 91.3999 643.41C100.153 648.385 106.792 655.099 111.318 663.553C115.807 672.006 118.051 681.432 118.051 691.831C118.051 702.305 115.788 711.768 111.262 720.222C106.699 728.638 100.041 735.333 91.2877 740.308C82.4974 745.246 71.7434 747.715 59.0256 747.715C46.233 747.715 35.4603 745.246 26.7074 740.308C17.9172 735.333 11.2777 728.638 6.78908 720.222C2.26304 711.768 2.02941e-05 702.305 1.98363e-05 691.831C1.93817e-05 681.432 2.26304 672.006 6.78908 663.553C11.2777 655.099 17.9172 648.385 26.7074 643.41C35.4602 638.435 46.233 635.948 59.0256 635.948ZM59.0256 668.041C52.143 668.041 46.3452 668.958 41.6321 670.791C36.8816 672.586 33.2907 675.261 30.8594 678.814C28.3906 682.33 27.1563 686.669 27.1563 691.831C27.1563 696.993 28.3906 701.351 30.8594 704.904C33.2907 708.42 36.8816 711.095 41.6321 712.928C46.3452 714.723 52.143 715.621 59.0256 715.621C65.9082 715.621 71.7247 714.723 76.4752 712.928C81.1882 711.095 84.7791 708.42 87.2479 704.904C89.6792 701.351 90.8949 696.993 90.8949 691.831C90.8949 686.669 89.6792 682.33 87.2479 678.814C84.7791 675.261 81.1882 672.586 76.4752 670.791C71.7247 668.958 65.9082 668.041 59.0256 668.041Z" fill="#000619" fill-opacity="0.05"/>
<path d="M1.57104 522.091H116.48V548.125L56.108 589.644V590.318H116.48V621.514H1.57104L1.57104 595.031L61.7188 554.184V553.287H1.57104L1.57104 522.091Z" fill="#000619" fill-opacity="0.05"/>
<path d="M26.7074 510.476H1.57104L1.57103 410.604H26.7074L26.7074 445.167H116.48V475.914H26.7074L26.7074 510.476Z" fill="#000619" fill-opacity="0.05"/>
<path d="M116.48 383.518V417.183L1.57103 379.254L1.57103 336.612L116.48 298.683L116.48 332.347L33.2159 357.484V358.382L116.48 383.518ZM71.1449 389.802V326.512H94.4858L94.4858 389.802H71.1449Z" fill="#000619" fill-opacity="0.05"/>
<path d="M44.6619 185.737L44.6619 217.382C42.0436 217.607 39.6683 218.205 37.5362 219.178C35.4041 220.113 33.5713 221.422 32.0376 223.105C30.4666 224.751 29.2697 226.752 28.4467 229.109C27.5864 231.465 27.1562 234.14 27.1562 237.132C27.1563 242.369 28.428 246.802 30.9716 250.43C33.5152 254.021 37.1622 256.751 41.9126 258.622C46.6631 260.454 52.3674 261.371 59.0256 261.371C66.0578 261.371 71.9491 260.436 76.6996 258.565C81.4126 256.658 84.9662 253.909 87.3601 250.318C89.7166 246.727 90.8949 242.406 90.8949 237.357C90.8949 234.476 90.5395 231.895 89.8288 229.614C89.0807 227.332 88.0147 225.35 86.6307 223.666C85.2467 221.983 83.5822 220.618 81.6371 219.57C79.6546 218.486 77.429 217.756 74.9602 217.382L75.1847 185.737C80.0474 186.111 85.0036 187.477 90.0533 189.833C95.0656 192.19 99.7038 195.538 103.968 199.877C108.195 204.178 111.599 209.508 114.18 215.867C116.761 222.226 118.051 229.614 118.051 238.03C118.051 248.578 115.788 258.042 111.262 266.421C106.736 274.762 100.078 281.364 91.2876 286.227C82.4974 291.052 71.7434 293.465 59.0256 293.465C46.233 293.465 35.4602 290.996 26.7074 286.058C17.9171 281.121 11.2777 274.463 6.78906 266.084C2.26302 257.705 4.5127e-07 248.354 0 238.03C-3.17197e-07 230.773 0.991239 224.096 2.97372 217.999C4.9562 211.902 7.85511 206.553 11.6705 201.953C15.4484 197.352 20.1054 193.649 25.6413 190.843C31.1773 188.038 37.5175 186.336 44.6619 185.737Z" fill="#000619" fill-opacity="0.05"/>
<path d="M26.7074 174.726H1.57102L1.57102 74.854L26.7074 74.854L26.7074 109.417L116.48 109.417V140.164H26.7074V174.726Z" fill="#000619" fill-opacity="0.05"/>
</svg>
