<svg width="42" height="42" viewBox="0 0 42 42" fill="none" xmlns="http://www.w3.org/2000/svg">
<path d="M35 3.5H17.5C16.5717 3.5 15.6815 3.86875 15.0251 4.52513C14.3687 5.1815 14 6.07174 14 7V10.5H28C28.9283 10.5 29.8185 10.8687 30.4749 11.5251C31.1313 12.1815 31.5 13.0717 31.5 14V28H35C35.9283 28 36.8185 27.6313 37.4749 26.9749C38.1313 26.3185 38.5 25.4283 38.5 24.5V7C38.5 6.07174 38.1313 5.1815 37.4749 4.52513C36.8185 3.86875 35.9283 3.5 35 3.5Z" fill="white" fill-opacity="0.5"/>
<path d="M17.5 4H35C35.7956 4 36.5585 4.3163 37.1211 4.87891C37.6837 5.44152 38 6.20435 38 7V24.5C38 25.2956 37.6837 26.0585 37.1211 26.6211C36.5585 27.1837 35.7956 27.5 35 27.5H32V14C32 12.9391 31.5783 11.922 30.8281 11.1719C30.078 10.4217 29.0609 10 28 10H14.5V7C14.5 6.20435 14.8163 5.44152 15.3789 4.87891C15.9415 4.3163 16.7044 4 17.5 4Z" stroke="url(#paint0_linear_2653_575)" stroke-opacity="0.36"/>
<path d="M7 38.5H24.5C26.4303 38.5 28 36.9303 28 35V17.5C28 15.5697 26.4303 14 24.5 14H7C5.06975 14 3.5 15.5697 3.5 17.5V35C3.5 36.9303 5.06975 38.5 7 38.5ZM10.5 21H21V24.5H10.5V21ZM10.5 28H21V31.5H10.5V28Z" fill="white" fill-opacity="0.5"/>
<path d="M7 14.5H24.5C26.1541 14.5 27.5 15.8459 27.5 17.5V35C27.5 36.6541 26.1541 38 24.5 38H7C5.34589 38 4 36.6541 4 35V17.5C4 15.8459 5.34589 14.5 7 14.5ZM10 32H21.5V27.5H10V32ZM10 25H21.5V20.5H10V25Z" stroke="url(#paint1_linear_2653_575)" stroke-opacity="0.36"/>
<defs>
<linearGradient id="paint0_linear_2653_575" x1="26.25" y1="3.5" x2="26.25" y2="28" gradientUnits="userSpaceOnUse">
<stop offset="0.245192" stop-color="white" stop-opacity="0"/>
<stop offset="1" stop-color="white"/>
</linearGradient>
<linearGradient id="paint1_linear_2653_575" x1="15.75" y1="14" x2="15.75" y2="38.5" gradientUnits="userSpaceOnUse">
<stop offset="0.245192" stop-color="white" stop-opacity="0"/>
<stop offset="1" stop-color="white"/>
</linearGradient>
</defs>
</svg>
