<svg width="75" height="75" viewBox="0 0 75 75" fill="none" xmlns="http://www.w3.org/2000/svg">
<path d="M63.2778 5.5C65.1932 5.5 67.0302 6.26091 68.3847 7.61534C69.7391 8.96977 70.5 10.8068 70.5 12.7222V63.2778C70.5 65.1932 69.7391 67.0302 68.3847 68.3847C67.0302 69.7391 65.1932 70.5 63.2778 70.5H12.7222C10.8068 70.5 8.96977 69.7391 7.61534 68.3847C6.26091 67.0302 5.5 65.1932 5.5 63.2778V12.7222C5.5 10.8068 6.26091 8.96977 7.61534 7.61534C8.96977 6.26091 10.8068 5.5 12.7222 5.5H63.2778ZM61.4722 61.4722V42.3333C61.4722 39.2111 60.2319 36.2168 58.0242 34.0091C55.8165 31.8014 52.8222 30.5611 49.7 30.5611C46.6306 30.5611 43.0556 32.4389 41.3222 35.2556V31.2472H31.2472V61.4722H41.3222V43.6694C41.3222 40.8889 43.5611 38.6139 46.3417 38.6139C47.6825 38.6139 48.9684 39.1465 49.9165 40.0946C50.8646 41.0427 51.3972 42.3286 51.3972 43.6694V61.4722H61.4722ZM19.5111 25.5778C21.1201 25.5778 22.6632 24.9386 23.8009 23.8009C24.9386 22.6632 25.5778 21.1201 25.5778 19.5111C25.5778 16.1528 22.8694 13.4083 19.5111 13.4083C17.8926 13.4083 16.3403 14.0513 15.1958 15.1958C14.0513 16.3403 13.4083 17.8926 13.4083 19.5111C13.4083 22.8694 16.1528 25.5778 19.5111 25.5778ZM24.5306 61.4722V31.2472H14.5278V61.4722H24.5306Z" fill="#EBEEFA"/>
</svg>
