<svg width="95" height="95" viewBox="0 0 95 95" fill="none" xmlns="http://www.w3.org/2000/svg">
<path d="M84.4444 0C87.2439 0 89.9288 1.1121 91.9083 3.09165C93.8879 5.0712 95 7.75605 95 10.5556V84.4444C95 87.2439 93.8879 89.9288 91.9083 91.9083C89.9288 93.8879 87.2439 95 84.4444 95H10.5556C7.75605 95 5.0712 93.8879 3.09165 91.9083C1.1121 89.9288 0 87.2439 0 84.4444V10.5556C0 7.75605 1.1121 5.0712 3.09165 3.09165C5.0712 1.1121 7.75605 0 10.5556 0H84.4444ZM81.8056 81.8056V53.8333C81.8056 49.2701 79.9928 44.8938 76.7662 41.6672C73.5395 38.4405 69.1632 36.6278 64.6 36.6278C60.1139 36.6278 54.8889 39.3722 52.3556 43.4889V37.6306H37.6306V81.8056H52.3556V55.7861C52.3556 51.7222 55.6278 48.3972 59.6917 48.3972C61.6513 48.3972 63.5307 49.1757 64.9164 50.5614C66.3021 51.9471 67.0806 53.8265 67.0806 55.7861V81.8056H81.8056ZM20.4778 29.3444C22.8294 29.3444 25.0846 28.4103 26.7475 26.7475C28.4103 25.0846 29.3444 22.8294 29.3444 20.4778C29.3444 15.5694 25.3861 11.5583 20.4778 11.5583C18.1122 11.5583 15.8435 12.4981 14.1708 14.1708C12.4981 15.8435 11.5583 18.1122 11.5583 20.4778C11.5583 25.3861 15.5694 29.3444 20.4778 29.3444ZM27.8139 81.8056V37.6306H13.1944V81.8056H27.8139Z" fill="white" fill-opacity="0.5"/>
<path d="M10.5557 1H84.4443C86.9786 1 89.4092 2.00681 91.2012 3.79883C92.9932 5.59084 94 8.02138 94 10.5557V84.4443C94 86.9786 92.9932 89.4092 91.2012 91.2012C89.4092 92.9932 86.9786 94 84.4443 94H10.5557C8.02138 94 5.59084 92.9932 3.79883 91.2012C2.00681 89.4092 1 86.9786 1 84.4443V10.5557C1 8.02137 2.00681 5.59084 3.79883 3.79883C5.59084 2.00681 8.02137 1 10.5557 1ZM12.1943 82.8057H28.8135V36.6309H12.1943V82.8057ZM64.5996 35.6279C60.7012 35.6281 56.3263 37.5332 53.3555 40.5986V36.6309H36.6309V82.8057H53.3555V55.7861C53.3555 52.2653 56.1892 49.3976 59.6914 49.3975C61.3858 49.3975 63.0109 50.0705 64.209 51.2686C65.4071 52.4667 66.0801 54.0917 66.0801 55.7861V82.8057H82.8057V53.833C82.8056 49.0048 80.8877 44.3741 77.4736 40.96C74.0594 37.5458 69.428 35.6279 64.5996 35.6279ZM20.4775 10.5586C17.8468 10.5587 15.3241 11.6037 13.4639 13.4639C11.6037 15.3241 10.5587 17.8468 10.5586 20.4775C10.5586 25.9458 15.0248 30.3446 20.4775 30.3447C23.0943 30.3447 25.6037 29.3045 27.4541 27.4541C29.3045 25.6037 30.3447 23.0943 30.3447 20.4775C30.3446 15.0248 25.9458 10.5586 20.4775 10.5586Z" stroke="url(#paint0_linear_2653_583)" stroke-opacity="0.36" stroke-width="2"/>
<defs>
<linearGradient id="paint0_linear_2653_583" x1="47.5" y1="0" x2="47.5" y2="95" gradientUnits="userSpaceOnUse">
<stop offset="0.245192" stop-color="white" stop-opacity="0"/>
<stop offset="1" stop-color="white"/>
</linearGradient>
</defs>
</svg>
