<svg width="164" height="944" viewBox="0 0 164 944" fill="none" xmlns="http://www.w3.org/2000/svg">
<path d="M116.48 896.709H1.57106L1.57106 847.11C1.57106 838.582 3.2543 831.119 6.62077 824.723C9.98725 818.327 14.719 813.352 20.8161 809.798C26.9131 806.245 34.0389 804.468 42.1932 804.468C50.4224 804.468 57.5481 806.301 63.5703 809.966C69.5926 813.595 74.2309 818.701 77.4851 825.284C80.7394 831.83 82.3665 839.479 82.3665 848.232V877.857H58.1279L58.1279 854.516C58.1279 850.85 57.492 847.727 56.2202 845.146C54.911 842.528 53.0595 840.527 50.6655 839.143C48.2716 837.721 45.4475 837.01 42.1932 837.01C38.9015 837.01 36.0962 837.721 33.777 839.143C31.4205 840.527 29.625 842.528 28.3907 845.146C27.1189 847.727 26.483 850.85 26.483 854.516V865.513H116.48L116.48 896.709Z" fill="#000619" fill-opacity="0.05"/>
<path d="M116.48 793.022H1.57105L1.57105 743.422C1.57105 734.894 3.12337 727.432 6.22801 721.035C9.33265 714.639 13.8026 709.664 19.6378 706.111C25.473 702.557 32.4678 700.78 40.6222 700.78C48.8514 700.78 55.79 702.613 61.4382 706.279C67.0864 709.907 71.3506 715.013 74.2309 721.596C77.1111 728.142 78.5512 735.792 78.5512 744.545V774.17H54.3125V750.829C54.3125 747.163 53.8637 744.04 52.9659 741.459C52.0308 738.84 50.5533 736.839 48.5334 735.455C46.5135 734.034 43.8765 733.323 40.6222 733.323C37.3305 733.323 34.656 734.034 32.5988 735.455C30.5041 736.839 28.9704 738.84 27.9979 741.459C26.988 744.04 26.483 747.163 26.483 750.829L26.483 761.826H116.48V793.022ZM63.7387 725.692L116.48 696.965L116.48 730.854L63.7387 758.908L63.7387 725.692Z" fill="#000619" fill-opacity="0.05"/>
<path d="M59.0256 576.165C71.8182 576.165 82.6096 578.652 91.3999 583.627C100.153 588.602 106.792 595.316 111.318 603.77C115.807 612.223 118.051 621.649 118.051 632.048C118.051 642.522 115.788 651.985 111.262 660.439C106.699 668.855 100.041 675.55 91.2877 680.525C82.4974 685.463 71.7434 687.932 59.0256 687.932C46.233 687.932 35.4603 685.463 26.7074 680.525C17.9172 675.55 11.2777 668.855 6.78909 660.439C2.26305 651.985 2.3968e-05 642.522 2.35102e-05 632.048C2.30557e-05 621.649 2.26304 612.223 6.78908 603.77C11.2777 595.316 17.9172 588.602 26.7074 583.627C35.4603 578.652 46.233 576.165 59.0256 576.165ZM59.0256 608.258C52.143 608.258 46.3452 609.175 41.6321 611.008C36.8817 612.803 33.2907 615.478 30.8594 619.031C28.3906 622.547 27.1563 626.886 27.1563 632.048C27.1563 637.21 28.3906 641.568 30.8594 645.121C33.2907 648.637 36.8817 651.312 41.6321 653.145C46.3452 654.94 52.143 655.838 59.0256 655.838C65.9082 655.838 71.7247 654.94 76.4752 653.145C81.1882 651.312 84.7791 648.637 87.2479 645.121C89.6792 641.568 90.8949 637.21 90.8949 632.048C90.8949 626.886 89.6792 622.547 87.2479 619.031C84.7791 615.478 81.1882 612.803 76.4752 611.008C71.7247 609.175 65.9082 608.258 59.0256 608.258Z" fill="#000619" fill-opacity="0.05"/>
<path d="M1.57104 514.376L1.57104 483.629H80.3466C87.8277 483.666 94.411 485.555 100.097 489.295C105.745 492.999 110.159 498.123 113.338 504.669C116.48 511.178 118.051 518.677 118.051 527.168C118.051 534.537 116.779 541.27 114.236 547.367C111.655 553.464 107.615 558.327 102.117 561.955C96.5805 565.584 89.3987 567.379 80.571 567.342V536.146C83.4513 536.033 85.8826 535.547 87.8651 534.687C89.8476 533.789 91.3438 532.555 92.3537 530.984C93.3263 529.375 93.8125 527.43 93.8125 525.148C93.8125 522.829 93.3076 520.884 92.2976 519.313C91.2877 517.705 89.7914 516.489 87.809 515.666C85.7891 514.843 83.3016 514.413 80.3466 514.376L1.57104 514.376Z" fill="#000619" fill-opacity="0.05"/>
<path d="M116.48 468.844H1.57104L1.57104 386.029H26.7074L26.7074 437.648H46.4574V390.293H71.5938L71.5938 437.648L91.3438 437.648L91.3438 386.253H116.48V468.844Z" fill="#000619" fill-opacity="0.05"/>
<path d="M44.6619 263.279V294.923C42.0436 295.148 39.6683 295.746 37.5362 296.719C35.4041 297.654 33.5713 298.963 32.0377 300.646C30.4666 302.292 29.2697 304.294 28.4467 306.65C27.5864 309.007 27.1563 311.681 27.1563 314.673C27.1563 319.91 28.428 324.343 30.9716 327.971C33.5152 331.562 37.1622 334.293 41.9127 336.163C46.6631 337.996 52.3674 338.912 59.0256 338.912C66.0578 338.912 71.9491 337.977 76.6996 336.107C81.4127 334.199 84.9662 331.45 87.3601 327.859C89.7166 324.268 90.8949 319.948 90.8949 314.898C90.8949 312.018 90.5396 309.437 89.8288 307.155C89.0807 304.873 88.0147 302.891 86.6307 301.208C85.2467 299.524 83.5822 298.159 81.6371 297.112C79.6546 296.027 77.429 295.298 74.9602 294.923L75.1847 263.279C80.0474 263.653 85.0036 265.018 90.0533 267.374C95.0656 269.731 99.7038 273.079 103.968 277.418C108.195 281.719 111.599 287.05 114.18 293.409C116.761 299.767 118.051 307.155 118.051 315.571C118.051 326.119 115.788 335.583 111.262 343.962C106.736 352.303 100.078 358.905 91.2877 363.768C82.4974 368.593 71.7434 371.006 59.0256 371.006C46.233 371.006 35.4602 368.537 26.7074 363.6C17.9172 358.662 11.2777 352.004 6.78907 343.625C2.26303 335.246 1.01278e-05 325.895 9.67656e-06 315.571C9.35936e-06 308.315 0.991248 301.638 2.97373 295.541C4.95621 289.444 7.85512 284.095 11.6705 279.494C15.4484 274.893 20.1054 271.19 25.6413 268.384C31.1773 265.579 37.5175 263.877 44.6619 263.279Z" fill="#000619" fill-opacity="0.05"/>
<path d="M26.7074 252.267H1.57103L1.57103 152.395H26.7074L26.7074 186.958H116.48V217.705H26.7074V252.267Z" fill="#000619" fill-opacity="0.05"/>
<path d="M37.4801 78.7115C33.7396 79.0107 30.822 80.4134 28.7273 82.9196C26.6326 85.3883 25.5852 89.1476 25.5852 94.1973C25.5852 97.4141 25.978 100.051 26.7635 102.108C27.5116 104.128 28.5402 105.625 29.8494 106.597C31.1586 107.57 32.6548 108.075 34.3381 108.112C35.7221 108.187 36.9751 107.944 38.0973 107.383C39.1821 106.784 40.1733 105.849 41.071 104.577C41.9313 103.305 42.7169 101.678 43.4276 99.6959C44.1383 97.7134 44.7742 95.3568 45.3352 92.6262L47.3551 83.2001C48.7017 76.8412 50.4785 71.3987 52.6854 66.8727C54.8923 62.3467 57.492 58.6435 60.4844 55.7633C63.4394 52.8831 66.7685 50.7697 70.4716 49.4231C74.1747 48.0391 78.2145 47.3284 82.5909 47.291C90.1468 47.3284 96.5431 49.2174 101.78 52.9579C107.017 56.6985 111 62.0474 113.731 69.0048C116.461 75.9248 117.827 84.2475 117.827 93.9728C117.827 103.96 116.349 112.675 113.394 120.119C110.439 127.525 105.894 133.286 99.7599 137.4C93.5881 141.478 85.6956 143.535 76.0824 143.572L76.0824 113.947C79.5985 113.76 82.5535 112.881 84.9474 111.31C87.3414 109.739 89.1555 107.532 90.3899 104.689C91.6243 101.809 92.2415 98.3867 92.2415 94.4217C92.2415 91.0926 91.83 88.3059 91.0071 86.0616C90.1842 83.8173 89.0433 82.1154 87.5845 80.9558C86.1257 79.7962 84.4612 79.1977 82.5909 79.1603C80.8329 79.1977 79.2992 79.7775 77.9901 80.8997C76.6435 81.9844 75.4465 83.7799 74.3991 86.286C73.3144 88.7922 72.3045 92.1774 71.3693 96.4416L68.9006 107.888C66.6937 118.062 63.0092 126.085 57.8473 131.958C52.648 137.793 45.5597 140.692 36.5824 140.655C29.2884 140.692 22.9108 138.747 17.4496 134.819C11.951 130.854 7.66809 125.375 4.60085 118.38C1.53362 111.348 3.97314e-07 103.287 0 94.1973C-4.05489e-07 84.9208 1.55232 76.8973 4.65696 70.127C7.7616 63.3566 12.138 58.1386 17.7862 54.4728C23.397 50.7697 29.9616 48.8994 37.4801 48.862V78.7115Z" fill="#000619" fill-opacity="0.05"/>
</svg>
