<svg width="90" height="90" viewBox="0 0 90 90" fill="none" xmlns="http://www.w3.org/2000/svg">
<path fill-rule="evenodd" clip-rule="evenodd" d="M80 40C82.5229 39.9992 84.9528 40.952 86.8027 42.6675C88.6526 44.3829 89.7858 46.7342 89.975 49.25L90 50V80C90.0008 82.5229 89.048 84.9528 87.3325 86.8027C85.6171 88.6526 83.2658 89.7858 80.75 89.975L80 90H60C57.4771 90.0008 55.0472 89.048 53.1973 87.3325C51.3474 85.6171 50.2142 83.2658 50.025 80.75L50 80V50C49.9992 47.4771 50.952 45.0472 52.6675 43.1973C54.3829 41.3474 56.7342 40.2142 59.25 40.025L60 40H80ZM30 60C32.6522 60 35.1957 61.0536 37.0711 62.9289C38.9464 64.8043 40 67.3478 40 70V80C40 82.6522 38.9464 85.1957 37.0711 87.0711C35.1957 88.9464 32.6522 90 30 90H10C7.34784 90 4.8043 88.9464 2.92893 87.0711C1.05357 85.1957 0 82.6522 0 80V70C0 67.3478 1.05357 64.8043 2.92893 62.9289C4.8043 61.0536 7.34784 60 10 60H30ZM30 0C32.6522 0 35.1957 1.05357 37.0711 2.92893C38.9464 4.8043 40 7.34784 40 10V40C40 42.6522 38.9464 45.1957 37.0711 47.0711C35.1957 48.9464 32.6522 50 30 50H10C7.34784 50 4.8043 48.9464 2.92893 47.0711C1.05357 45.1957 0 42.6522 0 40V10C0 7.34784 1.05357 4.8043 2.92893 2.92893C4.8043 1.05357 7.34784 0 10 0H30ZM80 0C82.6522 0 85.1957 1.05357 87.0711 2.92893C88.9464 4.8043 90 7.34784 90 10V20C90 22.6522 88.9464 25.1957 87.0711 27.0711C85.1957 28.9464 82.6522 30 80 30H60C57.3478 30 54.8043 28.9464 52.9289 27.0711C51.0536 25.1957 50 22.6522 50 20V10C50 7.34784 51.0536 4.8043 52.9289 2.92893C54.8043 1.05357 57.3478 0 60 0H80Z" fill="white" fill-opacity="0.5"/>
<path d="M10 61H30C32.3869 61 34.6764 61.9479 36.3643 63.6357C38.0521 65.3236 39 67.613 39 70V80C39 82.387 38.0521 84.6764 36.3643 86.3643C34.6764 88.0521 32.3869 89 30 89H10C7.61305 89 5.32357 88.0521 3.63574 86.3643C1.94791 84.6764 1 82.387 1 80V70C1 67.613 1.94791 65.3236 3.63574 63.6357C5.32357 61.9479 7.61305 61 10 61ZM80 41C82.2706 40.9993 84.4581 41.8565 86.123 43.4004C87.7858 44.9423 88.8043 47.0555 88.9766 49.3164L89 50V80C89.0007 82.2706 88.1435 84.4581 86.5996 86.123C85.0574 87.7861 82.9439 88.8045 80.6826 88.9766L79.9961 89H60L59.5752 88.9902C57.4579 88.891 55.4378 88.047 53.877 86.5996C52.2139 85.0574 51.1945 82.944 51.0225 80.6826L51 80V50L51.0098 49.5752C51.109 47.4579 51.953 45.4378 53.4004 43.877C54.9424 42.2141 57.0554 41.1947 59.3164 41.0225L60.0039 41H80ZM10 1H30C32.3869 1 34.6764 1.94791 36.3643 3.63574C38.0521 5.32357 39 7.61305 39 10V40C39 42.3869 38.0521 44.6764 36.3643 46.3643C34.6764 48.0521 32.3869 49 30 49H10C7.61305 49 5.32357 48.0521 3.63574 46.3643C1.94791 44.6764 1 42.3869 1 40V10C1 7.61305 1.94791 5.32357 3.63574 3.63574C5.32357 1.94791 7.61305 1 10 1ZM60 1H80C82.387 1 84.6764 1.94791 86.3643 3.63574C88.0521 5.32357 89 7.61305 89 10V20C89 22.3869 88.0521 24.6764 86.3643 26.3643C84.6764 28.0521 82.387 29 80 29H60C57.6131 29 55.3236 28.0521 53.6357 26.3643C51.9479 24.6764 51 22.3869 51 20V10C51 7.61305 51.9479 5.32357 53.6357 3.63574C55.3236 1.94791 57.6131 1 60 1Z" stroke="url(#paint0_linear_2368_810)" stroke-opacity="0.36" stroke-width="2"/>
<defs>
<linearGradient id="paint0_linear_2368_810" x1="45" y1="0" x2="45" y2="90" gradientUnits="userSpaceOnUse">
<stop offset="0.245192" stop-color="white" stop-opacity="0"/>
<stop offset="1" stop-color="white"/>
</linearGradient>
</defs>
</svg>
