<svg width="62" height="78" viewBox="0 0 62 78" fill="none" xmlns="http://www.w3.org/2000/svg">
<path d="M34.875 27.3H56.1875L34.875 5.85V27.3ZM7.75 0H38.75L62 23.4V70.2C62 72.2687 61.1835 74.2526 59.7301 75.7154C58.2767 77.1782 56.3054 78 54.25 78H7.75C5.69457 78 3.72333 77.1782 2.26992 75.7154C0.816515 74.2526 0 72.2687 0 70.2V7.8C0 3.471 3.44875 0 7.75 0ZM38.75 70.2V66.3C38.75 61.113 28.4037 58.5 23.25 58.5C18.0963 58.5 7.75 61.113 7.75 66.3V70.2H38.75ZM23.25 39C21.1946 39 19.2233 39.8218 17.7699 41.2846C16.3165 42.7474 15.5 44.7313 15.5 46.8C15.5 48.8687 16.3165 50.8526 17.7699 52.3154C19.2233 53.7782 21.1946 54.6 23.25 54.6C25.3054 54.6 27.2767 53.7782 28.7301 52.3154C30.1835 50.8526 31 48.8687 31 46.8C31 44.7313 30.1835 42.7474 28.7301 41.2846C27.2767 39.8218 25.3054 39 23.25 39Z" fill="white" fill-opacity="0.5"/>
<path d="M7.75 1H38.334L61 23.8115V70.2002C60.9999 72.0057 60.2871 73.736 59.0205 75.0107C57.7542 76.2852 56.038 77 54.25 77H7.75C5.96195 77 4.24585 76.2852 2.97949 75.0107C1.71295 73.736 1.00005 72.0057 1 70.2002V7.7998C1.0001 4.01711 4.00715 1 7.75 1ZM23.25 57.5C20.547 57.5 16.5447 58.1771 13.1934 59.5273C11.5168 60.2028 9.93988 61.0719 8.7666 62.1602C7.5866 63.2548 6.75007 64.6378 6.75 66.2998V71.2002H39.75V66.2998C39.7499 64.6378 38.9134 63.2548 37.7334 62.1602C36.5601 61.0719 34.9832 60.2028 33.3066 59.5273C29.9553 58.1771 25.953 57.5 23.25 57.5ZM23.25 38C20.9273 38 18.701 38.9291 17.0605 40.5801C15.4205 42.2308 14.5001 44.4681 14.5 46.7998C14.5 49.1316 15.4203 51.3697 17.0605 53.0205C18.701 54.6715 20.9273 55.5996 23.25 55.5996C25.5727 55.5996 27.799 54.6715 29.4395 53.0205C31.0797 51.3697 32 49.1316 32 46.7998C31.9999 44.4681 31.0795 42.2308 29.4395 40.5801C27.799 38.9291 25.5727 38 23.25 38ZM33.875 28.2998H58.5908L56.8965 26.5947L35.584 5.14551L33.875 3.4248V28.2998Z" stroke="url(#paint0_linear_2368_825)" stroke-opacity="0.36" stroke-width="2"/>
<defs>
<linearGradient id="paint0_linear_2368_825" x1="31" y1="0" x2="31" y2="78" gradientUnits="userSpaceOnUse">
<stop offset="0.245192" stop-color="white" stop-opacity="0"/>
<stop offset="1" stop-color="white"/>
</linearGradient>
</defs>
</svg>
