<svg width="128" height="50" viewBox="0 0 128 50" fill="none" xmlns="http://www.w3.org/2000/svg">
<g clip-path="url(#clip0_2113_144)">
<path d="M2.74714 50C2.61072 49.9532 2.47429 49.9027 2.336 49.8615C1.0783 49.4852 0.300875 48.6522 0.112126 47.3605C-0.0747542 46.1082 0.390578 45.0693 1.46514 44.3841C2.56774 43.6821 3.70771 43.6971 4.80656 44.4234C5.07048 44.6073 5.38593 44.7024 5.70733 44.6949C17.2628 44.6874 28.8176 44.6874 40.3718 44.6949H40.9661V44.1408C40.9661 40.1984 40.9661 36.2555 40.9661 32.3119C40.9621 31.8084 41.1292 31.3185 41.4398 30.9226C41.7505 30.5268 42.1862 30.2484 42.6756 30.1333C43.1649 30.0181 43.6788 30.073 44.1329 30.289C44.587 30.5049 44.9543 30.869 45.1746 31.3216C45.3212 31.6446 45.3995 31.9945 45.4045 32.3493C45.4194 36.4838 45.4194 40.619 45.4045 44.7548C45.4049 45.8809 44.9731 46.9641 44.1984 47.7801C43.4237 48.5962 42.3655 49.0827 41.2426 49.1389C41.0221 49.1539 40.7997 49.1557 40.5773 49.1557C28.9908 49.1557 17.4042 49.1557 5.81759 49.1557C5.43578 49.1472 5.06018 49.2535 4.73929 49.4609C4.34871 49.7061 3.87964 49.8353 3.44607 50.0037L2.74714 50ZM4.90748 46.9225C4.90489 46.5664 4.79706 46.219 4.59758 45.9242C4.3981 45.6294 4.11592 45.4004 3.78663 45.266C3.45735 45.1317 3.09573 45.0981 2.7474 45.1694C2.39906 45.2408 2.07963 45.4139 1.8294 45.6669C1.57917 45.9199 1.40936 46.2414 1.3414 46.591C1.27343 46.9406 1.31036 47.3025 1.44752 47.6311C1.58468 47.9596 1.81593 48.2401 2.11208 48.4372C2.40823 48.6343 2.75602 48.739 3.11156 48.7383C3.58971 48.7348 4.04705 48.5419 4.38359 48.2016C4.72012 47.8614 4.90848 47.4015 4.90748 46.9225Z" fill="#EBEEFA"/>
<path d="M128 20.1123C127.944 20.3538 127.892 20.5972 127.828 20.8386C127.57 21.7669 126.994 22.5744 126.2 23.1194C125.407 23.6643 124.447 23.912 123.49 23.8188C122.532 23.7257 121.638 23.2977 120.964 22.6099C120.291 21.9222 119.88 21.0187 119.805 20.058C119.65 17.7536 121.14 15.8742 123.339 15.5953C125.582 15.3107 127.484 16.7185 127.929 19.0153C127.947 19.0863 127.971 19.1558 128 19.2231V20.1123ZM127.066 19.7061C127.084 19.2831 127.018 18.8606 126.871 18.4636C126.724 18.0665 126.5 17.7027 126.211 17.3936C125.922 17.0845 125.574 16.8363 125.188 16.6635C124.802 16.4906 124.386 16.3967 123.963 16.3871C122.136 16.3459 120.708 17.7462 120.676 19.6144C120.644 21.5125 122.018 22.9839 123.853 23.012C125.647 23.0382 127.032 21.6155 127.079 19.7061H127.066Z" fill="#EBEEFA"/>
<path d="M21.3586 12.5758V15.4474H40.7736C42.805 15.4474 44.4047 16.4676 45.0868 18.2048C45.2418 18.5413 45.3367 18.9024 45.3671 19.2718C45.3895 20.6908 45.4867 22.1265 45.3222 23.5286C45.0756 25.6308 43.2273 27.1827 41.11 27.2052C38.2077 27.2351 35.3036 27.2052 32.4013 27.2052C32.3303 27.2052 32.2593 27.1939 32.1603 27.1846V22.7855H40.9436V19.9232C40.7568 19.9139 40.5699 19.897 40.383 19.897H21.6239C18.7534 19.897 16.8921 18.0401 16.8921 15.1778C16.8921 14.3467 16.8921 13.5174 16.8921 12.6863C16.8921 10.1348 18.7086 8.24597 21.2576 8.12617C21.4221 8.12617 21.5847 8.12617 21.7473 8.12617H45.4007V12.5758H21.3586Z" fill="#EBEEFA"/>
<path d="M13.3227 5.27143V9.06964C13.3227 11.93 13.3339 14.7903 13.3227 17.6488C13.3375 18.1967 13.1457 18.73 12.7855 19.1425C12.4253 19.555 11.9232 19.8164 11.3791 19.8746C11.0884 19.9136 10.7928 19.8941 10.5097 19.8173C10.2265 19.7406 9.96147 19.608 9.73005 19.4274C9.49863 19.2469 9.30547 19.0219 9.16186 18.7657C9.01824 18.5095 8.92706 18.2272 8.89364 17.9352C8.8796 17.7728 8.87399 17.6097 8.87682 17.4466V3.26469C8.87682 1.7091 9.77197 0.814301 11.3306 0.814301C23.7432 0.814301 36.1545 0.814301 48.5646 0.814301C48.9166 0.82613 49.2627 0.72153 49.5495 0.51666C50.1565 0.105256 50.8925 -0.0701989 51.6195 0.0231961C52.3465 0.116591 53.0145 0.472421 53.4982 1.02396C53.9806 1.5752 54.2491 2.28181 54.2546 3.01483C54.26 3.74786 54.0022 4.45842 53.5282 5.01685C53.0548 5.57732 52.3925 5.94416 51.667 6.04769C50.9414 6.15122 50.2032 5.98423 49.5924 5.57843C49.2661 5.35555 48.8771 5.24336 48.4824 5.25833C36.9768 5.26582 25.4693 5.26582 13.96 5.25833L13.3227 5.27143Z" fill="#EBEEFA"/>
<path d="M24.9112 34.517H24.2945C20.6814 34.517 17.0684 34.517 13.4554 34.517C10.7662 34.517 8.87122 32.6189 8.88243 29.9195C8.88243 28.7215 8.81889 27.5066 8.98708 26.3272C9.27301 24.3242 11.1026 22.7855 13.1227 22.7705C18.4264 22.7443 23.7301 22.7574 29.0337 22.7574C29.1197 22.7574 29.2057 22.7705 29.3159 22.7799V27.1883H13.3526V30.0599H29.3141V42.602H24.9112V34.517Z" fill="#EBEEFA"/>
<path d="M61.4388 25.0075V41.2748C61.4388 41.3647 61.4388 41.4526 61.4388 41.5425C61.4519 41.8345 61.3454 42.0648 61.0295 42.0554C60.7137 42.046 60.6184 41.8102 60.6334 41.52C60.6334 41.447 60.6334 41.3721 60.6334 41.2991C60.6334 30.4418 60.6334 19.5844 60.6334 8.72707C60.6334 8.3976 60.5399 7.95395 61.0482 7.95582C61.5565 7.95769 61.4332 8.39199 61.4332 8.70461C61.4394 14.1333 61.4413 19.5676 61.4388 25.0075Z" fill="#EBEEFA"/>
<path d="M69.8802 33.1561V37.924H69.0075V26.3665C69.0737 26.35 69.1412 26.3394 69.2093 26.3347C70.6445 26.3347 72.0816 26.3029 73.5169 26.3347C74.8755 26.3721 75.9669 26.9581 76.5294 28.2404C77.0919 29.5226 76.9929 30.7619 76.1201 31.8832C75.8511 32.2408 75.5066 32.5346 75.1112 32.7436C74.7158 32.9526 74.2793 33.0717 73.8327 33.0925C72.7264 33.1542 71.6144 33.1337 70.5044 33.1468L69.8802 33.1561ZM69.8989 32.2744C71.25 32.2744 72.5825 32.3587 73.9 32.2463C74.8624 32.1658 75.5371 31.5182 75.8211 30.5616C76.3519 28.7776 75.2194 27.1921 73.3562 27.1453C72.2629 27.1134 71.1659 27.1453 70.0708 27.1453C70.012 27.1527 69.9543 27.1672 69.8989 27.1883V32.2744Z" fill="#EBEEFA"/>
<path d="M68.1497 21.8701L68.7514 21.2617C68.8617 21.3834 68.957 21.4863 69.0504 21.593C70.1829 22.8884 71.6257 23.2142 73.2403 22.8585C74.1261 22.6713 74.7727 22.1322 74.8979 21.1737C75.0231 20.2153 74.6924 19.3954 73.8215 18.9274C73.1506 18.553 72.4199 18.3003 71.7172 17.9914C71.3117 17.8042 70.8894 17.6638 70.5044 17.4504C69.2579 16.754 68.7645 15.717 68.9682 14.2905C69.1289 13.1542 70.0129 12.2501 71.3173 11.9936C72.9675 11.6679 74.4326 12.0329 75.6043 13.304C75.6641 13.3677 75.7109 13.4407 75.8379 13.611C75.7146 13.6934 75.5857 13.7664 75.4642 13.8562C75.3573 13.9445 75.255 14.0382 75.1577 14.137C74.5653 13.465 73.9075 12.9015 73.0086 12.7986C72.4826 12.7329 71.9497 12.7462 71.4276 12.8379C70.6296 12.9895 70.0503 13.4706 69.8914 14.3092C69.7251 15.1835 69.9606 15.951 70.7361 16.4377C71.236 16.7239 71.7556 16.9741 72.291 17.1864C72.9637 17.4878 73.6776 17.7143 74.3149 18.0775C75.5333 18.772 76.0117 19.9064 75.7894 21.3291C75.5931 22.5833 74.7895 23.3882 73.4197 23.7121C72.4579 23.9602 71.4442 23.9178 70.5064 23.59C69.5686 23.2622 68.7486 22.6638 68.1497 21.8701Z" fill="#EBEEFA"/>
<path d="M107.677 17.1097V15.7675H108.512V23.6297H107.664V22.1041C106.86 23.3677 105.795 23.8937 104.451 23.8319C102.807 23.757 101.583 22.9596 100.945 21.4489C100.267 19.8371 100.452 18.2666 101.618 16.915C102.687 15.6776 104.077 15.3276 105.645 15.7095C106.481 15.9116 107.122 16.4189 107.677 17.1097ZM101.476 19.6799C101.517 19.9869 101.536 20.2995 101.605 20.6009C101.926 22.003 103.087 22.9315 104.595 23.0101C105.974 23.0812 107.094 22.3268 107.514 21.0165C107.798 20.1472 107.788 19.2083 107.486 18.3452C107.139 17.325 106.441 16.6604 105.378 16.4545C103.266 16.0408 101.504 17.5066 101.476 19.6799Z" fill="#EBEEFA"/>
<path d="M100.095 34.3261H93.3243C93.4664 35.5822 94.0083 36.5369 95.1558 36.9955C96.6265 37.5814 97.9982 37.3905 99.1793 36.1943C99.3569 36.3665 99.5363 36.5369 99.74 36.7372C99.2048 37.3269 98.5141 37.753 97.7475 37.9663C96.9809 38.1795 96.1698 38.1713 95.4077 37.9425C94.6456 37.7137 93.9637 37.2736 93.4406 36.6731C92.9175 36.0726 92.5747 35.3362 92.4516 34.5489C92.1732 32.3231 93.5075 30.38 95.6286 29.9364C98.1122 29.4141 100.205 31.1232 100.164 33.6428C100.168 33.8469 100.125 34.0509 100.095 34.3261ZM99.284 33.5286C99.3064 31.8046 98.1272 30.6458 96.4247 30.6683C94.7222 30.6908 93.3169 31.9918 93.3711 33.5286H99.284Z" fill="#EBEEFA"/>
<path d="M84.6998 36.1999L85.2605 36.7765C84.0812 38.0139 82.6292 38.3808 81.0127 37.9708C79.3962 37.5608 78.3702 36.4732 78.0581 34.824C77.6133 32.4654 78.9439 30.4137 81.1566 29.9401C83.7411 29.3785 85.9108 31.2842 85.6978 33.8993C85.6716 34.2194 85.5688 34.3242 85.2418 34.3223C83.287 34.3074 81.3341 34.3223 79.3793 34.3223H78.899C78.8993 34.9176 79.0818 35.4985 79.422 35.9865C79.7622 36.4746 80.2437 36.8463 80.8015 37.0517C82.2274 37.5496 83.5636 37.368 84.6998 36.1999ZM84.797 33.5286C84.9091 31.9281 83.7393 30.7057 82.0835 30.6702C80.3081 30.6308 78.8467 31.9431 78.9065 33.5286H84.797Z" fill="#EBEEFA"/>
<path d="M89.9474 21.8869C90.0988 22.0741 90.252 22.2838 90.4277 22.5159C89.5811 23.4519 88.4542 23.8675 87.1517 23.8263C86.18 23.8079 85.2472 23.4406 84.5231 22.7913C83.799 22.1419 83.3319 21.2537 83.2066 20.2883C82.9469 18.128 84.1167 16.2673 86.0846 15.7132C88.856 14.9345 91.349 17.0966 90.8519 19.8521C90.8383 19.9061 90.8215 19.9593 90.8015 20.0112H84.1167C84.0569 21.0577 84.7671 22.1733 85.7818 22.6657C87.1311 23.3283 88.6542 23.0513 89.9474 21.8869ZM90.0521 19.2325C89.9997 18.1879 89.6783 17.3081 88.7626 16.7858C87.6563 16.1531 86.52 16.2243 85.4399 16.8794C84.5877 17.4073 84.1653 18.2142 84.0812 19.2325H90.0521Z" fill="#EBEEFA"/>
<path d="M1.81648 39.6649L0.536346 41.1119C-0.381237 39.9382 0.0504566 37.486 2.01457 36.8064C2.11362 36.7709 2.30984 36.8813 2.40141 36.9805C2.99009 37.6264 3.55073 38.2872 4.13379 38.9367C4.24032 39.0584 4.34871 39.1763 4.47765 39.3111L5.64752 37.982C5.85981 38.2809 6.00963 38.6197 6.08798 38.9781C6.16634 39.3364 6.17162 39.7069 6.10351 40.0674C6.03749 40.5244 5.86617 40.9597 5.60311 41.3389C5.34005 41.718 4.99248 42.0306 4.58791 42.252C4.36179 42.3849 4.21415 42.3867 4.02727 42.1659C3.4087 41.4283 2.76396 40.7132 2.12857 39.9906C2.037 39.8952 1.93421 39.7922 1.81648 39.6649Z" fill="#EBEEFA"/>
<path d="M111.132 15.76H111.941V16.9094L112.095 17.0255C112.108 16.9543 112.095 16.8626 112.141 16.8121C112.569 16.2755 113.15 15.8834 113.807 15.6888C114.465 15.4943 115.166 15.5067 115.815 15.7244C117.028 16.1232 117.849 17.2351 117.882 18.6466C117.92 20.2452 117.895 21.8476 117.897 23.4481C117.891 23.5115 117.879 23.5741 117.862 23.6353H117.053V23.1561C117.053 21.7334 117.077 20.3089 117.043 18.8862C116.998 16.973 115.372 15.891 113.575 16.5387C112.575 16.9 111.986 17.7611 111.969 18.9592C111.949 20.3519 111.969 21.7465 111.969 23.1393V23.6391H111.14L111.132 15.76Z" fill="#EBEEFA"/>
<path d="M1.13437 22.6975L3.10782 24.9438L5.08689 22.6975C5.38095 22.943 5.62352 23.2444 5.80058 23.5843C5.97764 23.9243 6.08569 24.296 6.11847 24.678C6.12648 24.821 6.07969 24.9616 5.98765 25.0711C5.05325 26.0314 4.09642 26.9787 3.12464 27.9539C2.13791 26.9562 1.16614 25.994 0.201832 25.0187C0.127035 24.9336 0.087583 24.8231 0.0915728 24.7098C0.118197 24.3207 0.224521 23.9412 0.403925 23.595C0.583329 23.2488 0.831971 22.9433 1.13437 22.6975Z" fill="#EBEEFA"/>
<path d="M107.894 36.6679L108.529 36.1213C108.605 36.2423 108.692 36.3563 108.789 36.462C109.701 37.3287 110.779 37.514 111.966 37.179C112.207 37.1256 112.426 36.9978 112.591 36.8135C112.757 36.6291 112.86 36.3975 112.887 36.1513C112.96 35.5672 112.764 35.0767 112.237 34.8034C111.796 34.5966 111.343 34.4154 110.882 34.2606C110.376 34.0975 109.88 33.9056 109.396 33.6859C109.117 33.5332 108.879 33.3146 108.702 33.0491C108.526 32.7835 108.417 32.479 108.385 32.1618C108.352 31.8446 108.398 31.5243 108.516 31.2285C108.635 30.9328 108.824 30.6704 109.067 30.4642C110.276 29.4328 112.769 29.7473 113.713 31.067L113.134 31.565C112.452 30.7937 111.521 30.5373 110.459 30.6889C109.775 30.7862 109.318 31.1887 109.245 31.7372C109.162 32.3774 109.432 32.8267 110.121 33.1112C110.544 33.2853 110.99 33.3976 111.429 33.5436C111.723 33.641 112.022 33.7308 112.306 33.8544C113.397 34.3205 113.827 35.0056 113.73 36.1007C113.642 37.0891 113.012 37.7593 111.926 38.0232C111.195 38.2036 110.428 38.172 109.714 37.9321C108.999 37.6921 108.368 37.2537 107.894 36.6679Z" fill="#EBEEFA"/>
<path d="M51.7958 17.3718L52.8049 16.7765C52.6183 16.3987 52.3045 16.099 51.9188 15.9305C51.5331 15.762 51.1003 15.7354 50.6969 15.8555C50.2934 15.9694 49.9398 16.216 49.6931 16.5555C49.4463 16.895 49.3207 17.3078 49.3364 17.7274C49.3701 18.6803 50.0354 19.3486 51.1753 19.5489V20.672C50.1681 20.7918 48.9664 20.0468 48.4768 19.006C48.2006 18.4261 48.1145 17.7737 48.2307 17.1418C48.3469 16.51 48.6594 15.9311 49.1237 15.4878C49.588 15.0446 50.1802 14.7596 50.8158 14.6737C51.4515 14.5878 52.0979 14.7052 52.6629 15.0094C53.6777 15.5578 54.3448 16.711 54.1748 17.69C53.5188 17.69 52.8554 17.6769 52.192 17.69C52.115 17.6969 52.0401 17.7194 51.972 17.756C51.904 17.7927 51.844 17.8429 51.7958 17.9034C51.5566 18.2572 51.209 18.3864 50.8969 18.1842C50.7666 18.0973 50.6745 17.9636 50.6398 17.8107C50.605 17.6577 50.6301 17.4973 50.71 17.3624C50.8969 17.046 51.2893 16.988 51.6332 17.2426C51.6837 17.2669 51.7248 17.31 51.7958 17.3718Z" fill="#EBEEFA"/>
<path d="M51.194 26.6548V27.7349C50.1568 27.8753 49.0281 27.1733 48.4917 26.082C48.2128 25.513 48.1198 24.8705 48.2258 24.2456C48.3318 23.6206 48.6314 23.045 49.0823 22.6002C49.5356 22.1578 50.1142 21.8665 50.739 21.7659C51.3638 21.6654 52.0044 21.7606 52.5732 22.0386C53.6309 22.5665 54.328 23.7233 54.1804 24.7585C53.5263 24.7585 52.8722 24.7473 52.2032 24.7698C52.1249 24.7747 52.0485 24.7962 51.9789 24.8326C51.9094 24.869 51.8483 24.9197 51.7995 24.9813C51.5491 25.3557 51.2258 25.4774 50.91 25.2808C50.8405 25.2381 50.7804 25.1818 50.7332 25.1153C50.686 25.0489 50.6527 24.9735 50.6353 24.8938C50.6178 24.8141 50.6166 24.7317 50.6317 24.6515C50.6468 24.5713 50.6779 24.495 50.7231 24.4272C50.9305 24.1221 51.2987 24.0884 51.6575 24.3448C51.7042 24.3785 51.7472 24.416 51.8033 24.459L52.7956 23.8843C52.6259 23.5246 52.3394 23.2333 51.983 23.0578C51.6266 22.8824 51.2213 22.8332 50.8333 22.9184C50.4176 23.005 50.0435 23.2303 49.7719 23.5573C49.5004 23.8844 49.3476 24.2939 49.3383 24.7192C49.3196 25.7039 49.9363 26.3553 51.194 26.6548Z" fill="#EBEEFA"/>
<path d="M99.7437 15.7993C99.6932 15.9247 99.6484 16.0464 99.5942 16.1625C98.486 18.5455 97.3647 20.9304 96.2434 23.3077C96.2214 23.402 96.1683 23.486 96.0927 23.5461C96.017 23.6062 95.9233 23.6389 95.8267 23.6389C95.7301 23.6389 95.6363 23.6062 95.5607 23.5461C95.485 23.486 95.4319 23.402 95.4099 23.3077C94.2886 20.9154 93.1674 18.5155 92.0461 16.1176C91.9975 16.0146 91.9564 15.906 91.9097 15.7956C92.788 15.6477 92.7936 15.6496 93.13 16.3909C94.0158 18.3414 94.8997 20.2901 95.8136 22.3006C95.8921 22.164 95.9519 22.076 96.0005 21.9824C96.8626 20.1005 97.7229 18.2185 98.5813 16.3366C98.8859 15.6589 98.9102 15.6458 99.7437 15.7993Z" fill="#EBEEFA"/>
<path d="M5.82319 33.2722L3.16202 30.5653L0.31209 33.4238C-0.248551 32.5721 -0.0766213 30.8873 1.00915 29.9513C1.52932 29.4911 2.19032 29.2219 2.8835 29.1879C3.57668 29.1538 4.26079 29.3571 4.82338 29.7641C5.92971 30.5803 6.37636 32.1003 5.82319 33.2722Z" fill="#EBEEFA"/>
<path d="M79.3438 16.5238H77.3199V15.76H79.3158V12.4017H80.1717V15.7244H82.2106V16.5069H80.1979V23.6466H79.3438V16.5238Z" fill="#EBEEFA"/>
<path d="M88.5981 30.0281V26.7035H89.4372V30H91.4649V30.7937H89.4559V37.9334H88.6019V30.8012H86.5817V30.0281H88.5981Z" fill="#EBEEFA"/>
<path d="M0.560642 33.976C0.654082 33.8693 0.717622 33.7888 0.790505 33.7177L3.03307 31.447L5.53353 33.9442C5.26766 34.3453 4.90648 34.6741 4.48244 34.9008C4.05839 35.1276 3.58476 35.2453 3.10408 35.2434C2.60764 35.2655 2.11373 35.1608 1.6688 34.9391C1.22387 34.7174 0.842531 34.386 0.560642 33.976Z" fill="#EBEEFA"/>
<path d="M103.012 37.9146C102.917 37.9344 102.821 37.9482 102.724 37.9558C102.549 37.9558 102.373 37.9558 102.164 37.9558V30.0505H103.001V31.1194C103.584 30.3238 104.257 29.9045 105.137 29.8652C106.017 29.8259 106.742 30.0524 107.361 30.7319L106.877 31.2448C106.406 31.0577 105.995 30.7825 105.552 30.717C104.105 30.5073 103.066 31.4208 103.025 32.9334C102.984 34.4459 103.012 35.9285 103.01 37.4261L103.012 37.9146Z" fill="#EBEEFA"/>
<path d="M50.753 13.3115V12.1883C52.2648 12.1752 53.1133 11.477 53.0796 10.2958C53.0497 9.14264 52.1845 8.46874 50.7287 8.52864C50.7106 8.19854 50.7168 7.86755 50.7474 7.53838C50.7623 7.44478 50.9959 7.32497 51.1361 7.31561C52.9526 7.20891 54.4289 8.80382 54.2458 10.6552C54.2115 11.068 54.0909 11.469 53.8918 11.8321C53.6927 12.1952 53.4196 12.5123 53.0902 12.7628C52.7608 13.0133 52.3825 13.1916 51.9798 13.2862C51.5772 13.3807 51.1592 13.3893 50.753 13.3115Z" fill="#EBEEFA"/>
<path d="M51.8275 10.3407C51.8296 10.497 51.7701 10.6478 51.6621 10.7606C51.5541 10.8734 51.4061 10.9391 51.2501 10.9435C51.1724 10.9442 51.0954 10.9294 51.0235 10.8999C50.9516 10.8705 50.8863 10.8269 50.8315 10.7718C50.7766 10.7167 50.7334 10.6511 50.7041 10.579C50.6749 10.5069 50.6604 10.4297 50.6614 10.3519C50.6593 10.2776 50.6724 10.2037 50.6999 10.1346C50.7273 10.0655 50.7685 10.0028 50.821 9.95023C50.8735 9.89766 50.9361 9.85637 51.0051 9.82888C51.074 9.80139 51.1479 9.78827 51.222 9.79034C51.2984 9.78419 51.3752 9.79378 51.4478 9.81853C51.5203 9.84328 51.587 9.88266 51.6437 9.93423C51.7005 9.9858 51.746 10.0485 51.7777 10.1184C51.8093 10.1883 51.8263 10.264 51.8275 10.3407Z" fill="#EBEEFA"/>
<path d="M0.24855 26.0202L2.09867 27.8472C1.6762 27.6958 1.29181 27.4538 0.972271 27.1383C0.652737 26.8228 0.405757 26.4412 0.24855 26.0202Z" fill="#EBEEFA"/>
<path d="M4.08147 27.8716L5.90355 26.0202C5.6251 26.8963 5.02334 27.4635 4.08147 27.8716Z" fill="#EBEEFA"/>
</g>
<defs>
<clipPath id="clip0_2113_144">
<rect width="128" height="50" fill="white"/>
</clipPath>
</defs>
</svg>
