<svg width="75" height="75" viewBox="0 0 75 75" fill="none" xmlns="http://www.w3.org/2000/svg">
<path d="M13.9286 5.5C8.72813 5.5 4.5 9.66406 4.5 14.7857V61.2143C4.5 66.3359 8.72813 70.5 13.9286 70.5H61.0714C66.2719 70.5 70.5 66.3359 70.5 61.2143V14.7857C70.5 9.66406 66.2719 5.5 61.0714 5.5H13.9286ZM57.6978 17.6875L42.4058 34.8951L60.3937 58.3125H46.3098L35.2902 44.1083L22.6647 58.3125H15.667L32.0196 39.9007L14.7683 17.6875H29.2058L39.1795 30.673L50.7 17.6875H57.6978ZM52.129 54.192L27.0991 21.5904H22.9299L48.2397 54.192H52.129Z" fill="#EBEEFA"/>
</svg>
