<svg width="96" height="95" viewBox="0 0 96 95" fill="none" xmlns="http://www.w3.org/2000/svg">
<path d="M13.7143 0C6.15 0 0 6.08594 0 13.5714V81.4286C0 88.9141 6.15 95 13.7143 95H82.2857C89.85 95 96 88.9141 96 81.4286V13.5714C96 6.08594 89.85 0 82.2857 0H13.7143ZM77.3786 17.8125L55.1357 42.9621L81.3 77.1875H60.8143L44.7857 56.4275L26.4214 77.1875H16.2429L40.0286 50.2779L14.9357 17.8125H35.9357L50.4429 36.7913L67.2 17.8125H77.3786ZM69.2786 71.1652L32.8714 23.5167H26.8071L63.6214 71.1652H69.2786Z" fill="white" fill-opacity="0.5"/>
<path d="M13.7139 1H82.2861C89.3078 1.00023 94.9999 6.64813 95 13.5713V81.4287C94.9999 88.3519 89.3078 93.9998 82.2861 94H13.7139C6.69221 93.9998 1.00008 88.3519 1 81.4287V13.5713C1.00008 6.64813 6.69221 1.00022 13.7139 1ZM14.1445 18.4238L38.7305 50.2344L15.4932 76.5254L14.0244 78.1875H26.8721L27.1709 77.8496L44.7324 57.9961L60.0225 77.7988L60.3232 78.1875H83.3232L82.0947 76.5801L56.4297 43.0078L78.1279 18.4746L79.5977 16.8125H66.749L66.4502 17.1504L50.498 35.2168L36.7305 17.2051L36.4297 16.8125H12.8984L14.1445 18.4238ZM32.377 24.5166L67.2559 70.165H64.1123L28.8438 24.5166H32.377Z" stroke="url(#paint0_linear_2653_582)" stroke-opacity="0.36" stroke-width="2"/>
<defs>
<linearGradient id="paint0_linear_2653_582" x1="48" y1="0" x2="48" y2="95" gradientUnits="userSpaceOnUse">
<stop offset="0.245192" stop-color="white" stop-opacity="0"/>
<stop offset="1" stop-color="white"/>
</linearGradient>
</defs>
</svg>
